<svg width="48" height="48" viewBox="0 0 48 48" fill="none" xmlns="http://www.w3.org/2000/svg">
<path d="M37.274 13.9135V39.4089C37.274 41.5426 35.5441 43.2725 33.4103 43.2725H6.84799C4.71421 43.2725 2.98438 41.5426 2.98438 39.4089V3.86361C2.98438 1.72984 4.71421 0 6.84799 0H23.384C23.8232 0 24.252 0.0996812 24.6403 0.286487C24.9325 0.427026 36.8707 12.3998 37.0126 12.7108C37.1832 13.0849 37.274 13.4945 37.274 13.9135Z" fill="#F9F6E4"/>
<path d="M20.4783 14.4886H8.53009C8.13001 14.4886 7.80566 14.1642 7.80566 13.7642C7.80566 13.3641 8.13001 13.0397 8.53009 13.0397H20.4783C20.8784 13.0397 21.2027 13.3641 21.2027 13.7642C21.2027 14.1642 20.8784 14.4886 20.4783 14.4886Z" fill="#FFED00"/>
<path d="M20.4783 31.8749H8.53009C8.13001 31.8749 7.80566 31.5505 7.80566 31.1505C7.80566 30.7504 8.13001 30.426 8.53009 30.426H20.4783C20.8784 30.426 21.2027 30.7504 21.2027 31.1505C21.2027 31.5505 20.8784 31.8749 20.4783 31.8749Z" fill="#FFED00"/>
<path d="M29.973 20.284H8.33673C7.93666 20.284 7.6123 19.9597 7.6123 19.5596C7.6123 19.1595 7.93666 18.8351 8.33673 18.8351H29.973C30.3731 18.8351 30.6974 19.1595 30.6974 19.5596C30.6974 19.9597 30.3731 20.284 29.973 20.284Z" fill="#FFED00"/>
<path d="M37.0142 12.7152H27.1977C25.7556 12.7152 24.5859 11.5426 24.5859 10.0976V0.262756C24.8989 0.403778 25.1877 0.602754 25.435 0.850992L36.4279 11.8671C36.6742 12.1144 36.8732 12.4022 37.0142 12.7152Z" fill="#C5B927"/>
<path d="M25.1435 26.0795H8.33673C7.93666 26.0795 7.6123 25.7552 7.6123 25.355C7.6123 24.9549 7.93666 24.6306 8.33673 24.6306H25.1435C25.5435 24.6306 25.8679 24.9549 25.8679 25.355C25.8679 25.7552 25.5435 26.0795 25.1435 26.0795Z" fill="#FFED00"/>
<path d="M39.7622 46.7365L33.8574 39.2495L36.3236 36.8492L43.7543 42.7406C45.4614 44.0196 45.323 45.7 44.0209 47.0033C42.7188 48.3066 41.0399 48.4452 39.7622 46.7365Z" fill="#FFED00"/>
<path d="M39.1554 39.0949L36.1225 42.1211L33.8574 39.2494L36.3234 36.8492L39.1554 39.0949Z" fill="#C5B927"/>
<path d="M39.8097 34.3481L31.4088 42.7314L24.1973 35.5287L32.5982 27.1454L39.8097 34.3481Z" fill="#FFED00"/>
<path d="M31.7397 44.6022L31.7391 44.6028C31.0248 45.3156 29.9829 45.4319 29.4115 44.8625L22.0595 37.5238C21.4878 36.9541 21.6036 35.9137 22.3183 35.2005L22.3188 35.1999C23.0331 34.4871 24.075 34.3708 24.6465 34.9402L31.9985 42.2789C32.5703 42.8486 32.4544 43.889 31.7397 44.6022Z" fill="#C5B927"/>
<path d="M41.6583 34.6738L41.6589 34.6732C42.371 33.9583 42.4872 32.9154 41.9184 32.3434L34.5866 24.9845C34.0175 24.4122 32.9781 24.5282 32.2655 25.2435L32.265 25.2441C31.5528 25.9591 31.4366 27.0019 32.0054 27.5739L39.3372 34.9329C39.9063 35.5052 40.9456 35.3892 41.6583 34.6738Z" fill="#C5B927"/>
</svg>
