<svg width="32" height="48" viewBox="0 0 32 48" fill="none" xmlns="http://www.w3.org/2000/svg">
<path d="M27.8043 42.3515H4.19434C3.41771 42.3515 2.78809 41.7219 2.78809 40.9453C2.78809 38.9759 4.82471 36.9172 9.39165 34.2702C12.3752 32.5409 15.3079 31.2411 15.4313 31.1867C15.7931 31.0268 16.2055 31.0268 16.5674 31.1867C16.6907 31.2411 19.6235 32.5408 22.6071 34.2702C27.1741 36.9172 29.2107 38.9759 29.2107 40.9453C29.2106 41.7219 28.581 42.3515 27.8043 42.3515V42.3515Z" fill="#FFED00"/>
<path d="M6.53027 12.7031H25.4681L15.9992 24L6.53027 12.7031Z" fill="#FFED00"/>
<path d="M18.0743 24.0007C20.1193 22.0663 24.4118 17.7641 27.0167 13.4272C28.4753 10.9989 29.2135 8.85112 29.2105 7.04391C29.2093 6.27141 28.5767 5.64844 27.8042 5.64844H4.19434C3.42184 5.64844 2.78941 6.27141 2.78809 7.04391C2.78519 8.85112 3.52328 10.9989 4.98194 13.4272C7.58688 17.7641 11.8794 22.0663 13.9244 24.0007C12.7756 25.0886 10.9133 26.9284 9.03203 29.1094C4.88894 33.9126 2.78809 37.8948 2.78809 40.9453V40.9476C2.78809 41.5803 3.20772 42.1463 3.82047 42.3041C4.75197 42.544 5.58916 41.8544 5.6005 40.9649C5.60059 40.9588 5.60059 40.9526 5.60059 40.9464C5.60247 40.9213 5.74581 36.8727 10.8418 33.9254C12.1367 33.1765 13.4382 32.5045 14.4724 31.9944C15.4354 31.5195 16.5633 31.5195 17.5263 31.9944C18.5606 32.5045 19.8621 33.1764 21.157 33.9254C26.2529 36.8727 26.3963 40.9213 26.3981 40.9464C26.3988 41.7363 27.0504 42.3736 27.8454 42.351C28.6108 42.3292 29.2146 41.6754 29.2105 40.9098C29.1943 37.8638 27.0937 33.894 22.9667 29.1094C21.0854 26.9284 19.2231 25.0886 18.0743 24.0007V24.0007ZM8.81341 14.1094H23.185C20.7348 17.4765 17.5503 20.6246 15.9992 22.088C14.448 20.6253 11.2649 17.4794 8.81341 14.1094V14.1094Z" fill="#F9F6E4"/>
<path d="M28.5191 8.46094H3.48031C1.7465 8.46094 0.335938 7.05037 0.335938 5.31656V3.14438C0.335938 1.41056 1.7465 0 3.48031 0H28.5191C30.2529 0 31.6634 1.41056 31.6634 3.14438V5.31656C31.6634 7.05037 30.2529 8.46094 28.5191 8.46094Z" fill="#C5B927"/>
<path d="M28.5191 48H3.48031C1.7465 48 0.335938 46.5894 0.335938 44.8556V42.6834C0.335938 40.9496 1.7465 39.5391 3.48031 39.5391H28.5191C30.2529 39.5391 31.6634 40.9496 31.6634 42.6834V44.8556C31.6634 46.5894 30.2529 48 28.5191 48Z" fill="#C5B927"/>
</svg>
