<svg width="60" height="60" viewBox="0 0 60 60" fill="none" xmlns="http://www.w3.org/2000/svg">
<circle cx="20" cy="20" r="40" fill="#FFED00"/>
<path d="M21.0688 21.8C21.0688 21.3188 21.4626 20.925 21.9438 20.925H28.4376C28.9188 20.925 29.3126 21.3188 29.3126 21.8C29.3126 22.2813 28.9188 22.675 28.4376 22.675H21.9438C21.4626 22.675 21.0688 22.2813 21.0688 21.8ZM21.0688 26.9125C21.0688 27.3938 21.4626 27.7875 21.9438 27.7875H34.1376C34.6189 27.7875 35.0126 27.3938 35.0126 26.9125C35.0126 26.4313 34.6189 26.0375 34.1376 26.0375H21.9438C21.4626 26.0375 21.0688 26.425 21.0688 26.9125ZM34.1376 31.1875H21.9438C21.4626 31.1875 21.0688 31.5813 21.0688 32.0625C21.0688 32.5437 21.4626 32.9375 21.9438 32.9375H34.1376C34.6189 32.9375 35.0126 32.5437 35.0126 32.0625C35.0126 31.5813 34.6189 31.1875 34.1376 31.1875ZM34.1376 36.3H21.9438C21.4626 36.3 21.0688 36.6937 21.0688 37.175C21.0688 37.6562 21.4626 38.05 21.9438 38.05H34.1376C34.6189 38.05 35.0126 37.6562 35.0126 37.175C35.0126 36.6937 34.6189 36.3 34.1376 36.3ZM40.5876 21.3375V41.4062C40.5876 42.8625 39.4501 44 37.9938 44H18.0063C16.5501 44 15.4126 42.8625 15.4126 41.4062V14.5938C15.4126 13.1375 16.5563 12 18.0063 12H31.2438C31.2751 12 31.3001 12 31.3313 12.0063C31.3438 12.0063 31.3563 12.0125 31.3688 12.0125C31.3876 12.0125 31.4001 12.0188 31.4188 12.0188C31.4313 12.0188 31.4501 12.025 31.4626 12.0312C31.4751 12.0375 31.4876 12.0375 31.5063 12.0437C31.5188 12.05 31.5313 12.0562 31.5501 12.0562C31.5626 12.0625 31.5751 12.0625 31.5876 12.0688C31.6001 12.075 31.6126 12.0812 31.6251 12.0875C31.6376 12.0937 31.6501 12.1 31.6626 12.1063C31.6751 12.1125 31.6876 12.1187 31.7001 12.125C31.7126 12.1313 31.7251 12.1375 31.7376 12.15C31.7501 12.1563 31.7626 12.1687 31.7751 12.175C31.7876 12.1812 31.7938 12.1875 31.8063 12.2C31.8313 12.2188 31.8501 12.2375 31.8688 12.2562L40.3313 20.7188C40.3501 20.7375 40.3689 20.7625 40.3876 20.7812C40.3939 20.7938 40.4001 20.8 40.4126 20.8125C40.4251 20.825 40.4314 20.8375 40.4439 20.85C40.4501 20.8625 40.4564 20.875 40.4689 20.8875C40.4751 20.9 40.4813 20.9125 40.4876 20.925C40.4938 20.9375 40.5001 20.95 40.5064 20.9625C40.5126 20.975 40.5188 20.9875 40.5251 21C40.5313 21.0125 40.5376 21.025 40.5376 21.0375C40.5439 21.05 40.5501 21.0625 40.5501 21.0813C40.5563 21.0938 40.5564 21.1062 40.5626 21.125C40.5689 21.1375 40.5689 21.15 40.5751 21.1687C40.5814 21.1875 40.5813 21.2 40.5813 21.2188C40.5813 21.2313 40.5876 21.2438 40.5876 21.2563C40.5813 21.2813 40.5876 21.3125 40.5876 21.3375ZM32.1251 18.7812C32.1251 19.725 32.8626 20.4625 33.8063 20.4625H37.6001L32.1251 14.9875V18.7812ZM38.8376 22.2125H33.8063C32.8813 22.2125 32.0188 21.8562 31.3751 21.2125C30.7313 20.5687 30.3751 19.7063 30.3751 18.7812V13.75H18.0063C17.5251 13.75 17.1626 14.1125 17.1626 14.5938V41.4062C17.1626 41.8875 17.5251 42.25 18.0063 42.25H37.9938C38.4751 42.25 38.8376 41.8875 38.8376 41.4062V22.2125Z" fill="white"/>
</svg>
