<svg width="60" height="60" viewBox="0 0 60 60" fill="none" xmlns="http://www.w3.org/2000/svg">
<circle cx="20" cy="20" r="40" fill="#FFED00"/>
<g clip-path="url(#clip0_2225_4664)">
<path d="M41.8937 14H14.1063C12.9438 14 12 14.9437 12 16.1062V32.0938C12 33.2563 12.9438 34.2 14.1063 34.2H41.9C43.0625 34.2 44.0062 33.2563 44.0062 32.0938V16.1062C44 14.9437 43.0562 14 41.8937 14ZM42.25 32.0875C42.25 32.2812 42.0938 32.4438 41.8937 32.4438H14.1063C13.9125 32.4438 13.75 32.2875 13.75 32.0875V16.1062C13.75 15.9125 13.9062 15.75 14.1063 15.75H41.9C42.0938 15.75 42.2563 15.9062 42.2563 16.1062V32.0875H42.25ZM31.25 22.8313L26.3313 19.7562C25.875 19.4688 25.2938 19.4563 24.8188 19.7188C24.3438 19.9812 24.05 20.4812 24.05 21.025V27.175C24.05 27.7188 24.3438 28.2125 24.8188 28.475C25.0438 28.6 25.2937 28.6625 25.5437 28.6625C25.8187 28.6625 26.0938 28.5875 26.3313 28.4375L31.25 25.3625C31.6875 25.0875 31.95 24.6188 31.95 24.1C31.95 23.5813 31.6875 23.1062 31.25 22.8313ZM25.8 26.7V21.4875L29.9688 24.0938L25.8 26.7ZM43.125 38.375H23.1062C22.7375 37.2875 21.7125 36.5 20.5 36.5C19.2875 36.5 18.2625 37.2875 17.8938 38.375H12.875C12.3938 38.375 12 38.7687 12 39.25C12 39.7313 12.3938 40.125 12.875 40.125H17.8938C18.2625 41.2125 19.2875 42 20.5 42C21.7125 42 22.7375 41.2125 23.1062 40.125H43.125C43.6063 40.125 44 39.7313 44 39.25C44 38.7687 43.6063 38.375 43.125 38.375ZM20.5 40.25C19.95 40.25 19.5 39.8 19.5 39.25C19.5 38.7 19.95 38.25 20.5 38.25C21.05 38.25 21.5 38.7 21.5 39.25C21.5 39.8 21.05 40.25 20.5 40.25Z" fill="white"/>
</g>
<defs>
<clipPath id="clip0_2225_4664">
<rect width="32" height="32" fill="white" transform="translate(12 12)"/>
</clipPath>
</defs>
</svg>
