<svg width="16" height="18" viewBox="0 0 16 18" fill="none" xmlns="http://www.w3.org/2000/svg">
<path d="M15.3828 2.14453C14.5104 2.14453 13.8008 1.39971 13.8008 0.527344C13.8008 0.235863 13.5649 0 13.2734 0H8H2.72656C2.43508 0 2.19922 0.235863 2.19922 0.527344C2.19922 1.39971 1.48955 2.14453 0.617188 2.14453C0.325707 2.14453 0.0898438 2.38039 0.0898438 2.67188V6.89062C0.0898438 15.6248 7.77753 17.9578 7.85477 17.9799C7.90216 17.9933 7.95159 18 8 18C8.04841 18 8.09784 17.9933 8.14523 17.9799C8.22247 17.9578 15.9102 15.6248 15.9102 6.89062V2.67188C15.9102 2.38039 15.6743 2.14453 15.3828 2.14453Z" fill="#FFED00"/>
<path d="M10.6776 6.67555C10.6158 6.48448 10.45 6.34543 10.2522 6.31661L9.01214 6.13636L8.45699 5.01266C8.37107 4.83783 8.18696 4.75155 8.0007 4.74635C7.80291 4.74076 7.60269 4.827 7.51146 5.01266L6.95631 6.13636L5.71625 6.31661C5.51849 6.34543 5.35266 6.48448 5.29085 6.67555C5.22905 6.8661 5.28055 7.0757 5.42477 7.21576L6.32188 8.09073L6.10971 9.32567C6.07572 9.52342 6.1571 9.72325 6.31984 9.84117C6.48156 9.95961 6.69784 9.97508 6.87499 9.88135L8.0007 9.30704L9.0935 9.88132C9.27691 9.97789 9.49189 9.9556 9.64861 9.84113C9.81135 9.72322 9.89274 9.52339 9.85874 9.32564L9.64657 8.0907L10.5437 7.21573C10.6879 7.07567 10.7394 6.8661 10.6776 6.67555Z" fill="white"/>
<path d="M10.6776 6.67555C10.6158 6.48448 10.45 6.34543 10.2522 6.31661L9.01214 6.13636L8.45699 5.01266C8.37107 4.83783 8.18696 4.75155 8.0007 4.74635C7.80291 4.74076 7.60269 4.827 7.51146 5.01266L6.95631 6.13636L5.71625 6.31661C5.51849 6.34543 5.35266 6.48448 5.29085 6.67555C5.22905 6.8661 5.28055 7.0757 5.42477 7.21576L6.32188 8.09073L6.10971 9.32567C6.07572 9.52342 6.1571 9.72325 6.31984 9.84117C6.48156 9.95961 6.69784 9.97508 6.87499 9.88135L8.0007 9.30704L9.0935 9.88132C9.27691 9.97789 9.49189 9.9556 9.64861 9.84113C9.81135 9.72322 9.89274 9.52339 9.85874 9.32564L9.64657 8.0907L10.5437 7.21573C10.6879 7.07567 10.7394 6.8661 10.6776 6.67555Z" fill="black" fill-opacity="0.75"/>
<path d="M9.05566 10.9772H8.00098H6.94629C6.65481 10.9772 6.41895 11.213 6.41895 11.5045C6.41895 11.796 6.65481 12.0319 6.94629 12.0319H8.00098H9.05566C9.34714 12.0319 9.58301 11.796 9.58301 11.5045C9.58301 11.213 9.34714 10.9772 9.05566 10.9772Z" fill="white"/>
<path d="M9.05566 10.9772H8.00098H6.94629C6.65481 10.9772 6.41895 11.213 6.41895 11.5045C6.41895 11.796 6.65481 12.0319 6.94629 12.0319H8.00098H9.05566C9.34714 12.0319 9.58301 11.796 9.58301 11.5045C9.58301 11.213 9.34714 10.9772 9.05566 10.9772Z" fill="black" fill-opacity="0.75"/>
</svg>
