<svg width="24" height="20" viewBox="0 0 24 20" fill="none" xmlns="http://www.w3.org/2000/svg">
<path d="M0.75 17.1016C2.78906 18.3953 5.20781 19.1406 7.79531 19.1406C15.0727 19.1406 20.9719 13.2414 20.9719 5.96406C20.9719 5.78125 20.9648 5.60547 20.9648 5.42266C21.232 5.21875 22.8563 3.91094 23.257 3.07422C23.257 3.07422 21.9352 3.62266 20.6414 3.74922C20.6344 3.74922 20.6344 3.74922 20.6344 3.74922C20.6344 3.74922 20.6414 3.74922 20.6414 3.74219C20.7609 3.66484 22.4273 2.53281 22.6523 1.17578C22.6523 1.17578 21.7172 1.675 20.4094 2.11094C20.1914 2.18125 19.9664 2.25156 19.7344 2.31484C18.8766 1.42187 17.6812 0.859375 16.3453 0.859375C13.793 0.859375 11.7188 2.92656 11.7188 5.48594C11.7188 5.84453 11.7609 6.19609 11.8383 6.53359C11.4797 6.51953 6.04453 6.21016 2.35313 1.73828C2.35313 1.73828 0.145313 4.75469 3.675 7.85547C3.675 7.85547 2.60625 7.81328 1.67812 7.26484C1.67812 7.26484 1.34062 10.9211 5.33437 11.8492C5.33437 11.8492 4.54687 12.1445 3.29531 11.9336C3.29531 11.9336 3.99844 14.8867 7.54219 15.1609C7.54219 15.1609 4.72969 17.6922 0.75 17.1016Z" fill="white"/>
</svg>
