<svg width="370" height="305" viewBox="0 0 370 305" fill="none" xmlns="http://www.w3.org/2000/svg">
<g clip-path="url(#clip0_2002_2263)">
<path d="M186.738 304.969C244.024 304.188 289.831 257.074 289.051 199.737C288.272 142.4 241.2 96.5522 183.913 97.3328C126.627 98.1134 80.8197 145.227 81.5997 202.564C82.3796 259.901 129.451 305.749 186.738 304.969Z" fill="#FFED00"/>
<path d="M0 206.81L52.477 135.545H82.0821V206.81H92.0217V223.861H82.0821V248.101H52.477V223.861H0.106876L0 206.81ZM52.4235 206.81V171.659L27.8951 206.81H52.4235Z" fill="#FFED00"/>
<path d="M277.369 206.81L329.793 135.545H359.451V206.81H370.011V223.861H359.451V248.101H329.793V223.861H277.369V206.81ZM329.793 206.81V171.659L305.296 206.81H329.793Z" fill="#FFED00"/>
<path d="M261.861 121.745C252.723 117.852 235.857 119.157 228.729 138.733L264.458 165.797C281.109 155.228 280.179 129.886 261.861 121.745ZM255.448 152.5L242.943 143.033C245.423 136.187 251.322 135.727 254.518 137.096C260.963 139.941 261.294 148.809 255.48 152.5H255.448Z" fill="white"/>
<path d="M261.861 121.745C252.723 117.852 235.857 119.157 228.729 138.733L264.458 165.797C281.109 155.228 280.179 129.886 261.861 121.745ZM255.448 152.5L242.943 143.033C245.423 136.187 251.322 135.727 254.518 137.096C260.963 139.941 261.294 148.809 255.48 152.5H255.448Z" fill="black" fill-opacity="0.75"/>
<path d="M254.551 137.096C251.345 135.727 245.456 136.187 242.977 143.033L255.481 152.5C261.295 148.809 260.964 139.941 254.551 137.096Z" fill="#FFDBDB"/>
<path d="M109.527 121.745C91.2086 129.886 90.2895 155.228 106.877 165.797L142.617 138.733C135.542 119.157 118.676 117.852 109.527 121.745ZM115.94 152.5C110.137 148.809 110.457 139.941 116.87 137.096C120.076 135.727 125.965 136.187 128.445 143.033L115.94 152.5Z" fill="white"/>
<path d="M109.527 121.745C91.2086 129.886 90.2895 155.228 106.877 165.797L142.617 138.733C135.542 119.157 118.676 117.852 109.527 121.745ZM115.94 152.5C110.137 148.809 110.457 139.941 116.87 137.096C120.076 135.727 125.965 136.187 128.445 143.033L115.94 152.5Z" fill="black" fill-opacity="0.75"/>
<path d="M116.839 137.096C110.427 139.941 110.106 148.809 115.909 152.5L128.414 143.033C125.935 136.187 120.035 135.727 116.839 137.096Z" fill="#FFDBDB"/>
<path d="M232.983 227.338C251.366 213.528 269.556 218.352 279.453 222.952C280.468 215.699 288.452 128.003 185.711 128.003H185.604C84.0698 128.003 90.8459 215.721 91.8612 222.952C101.758 218.352 119.938 213.528 138.332 227.338C156.725 241.148 156.319 261.922 154.075 273.807C164.488 275.611 175.036 276.52 185.604 276.524H185.711C196.278 276.52 206.827 275.611 217.239 273.807C214.995 261.922 214.482 241.212 232.983 227.338ZM185.796 218.78C183.658 218.78 180.185 215.667 179.79 212.811C179.276 209.441 183.68 209.185 186.149 209.056C196.644 209.003 189.28 218.759 185.796 218.759V218.78Z" fill="white"/>
<path d="M186.148 209.035C183.68 209.163 179.276 209.42 179.789 212.79C180.185 215.646 183.68 218.759 185.796 218.759C189.28 218.759 196.644 209.003 186.148 209.035Z" fill="white"/>
<path d="M186.148 209.035C183.68 209.163 179.276 209.42 179.789 212.79C180.185 215.646 183.68 218.759 185.796 218.759C189.28 218.759 196.644 209.003 186.148 209.035Z" fill="black" fill-opacity="0.75"/>
<path d="M138.332 227.338C119.938 213.528 101.758 218.352 91.8613 222.952C96.1364 253.097 122.599 268.159 154.075 273.807C156.319 261.922 156.832 241.212 138.332 227.338Z" fill="white"/>
<path d="M279.454 222.952C269.557 218.352 251.367 213.528 232.984 227.338C214.601 241.148 214.996 261.922 217.241 273.807C248.716 268.159 275.222 253.097 279.454 222.952Z" fill="white"/>
<path d="M138.332 227.338C119.938 213.528 101.758 218.352 91.8613 222.952C96.1364 253.097 122.599 268.159 154.075 273.807C156.319 261.922 156.832 241.212 138.332 227.338Z" fill="#FFDBDB"/>
<path d="M169.689 254.22C171.346 260.072 177.866 264.436 185.657 264.436C188.039 264.487 190.407 264.065 192.625 263.195C194.843 262.325 196.866 261.023 198.579 259.366C190.883 253.001 177.94 250.583 169.689 254.22Z" fill="#FF7979"/>
<path d="M202.031 251.289C202.031 244.036 194.699 238.142 185.657 238.142C176.615 238.142 169.283 244.036 169.283 251.289C169.282 252.28 169.419 253.267 169.689 254.22C177.94 250.583 190.883 253.001 198.546 259.366C200.725 257.238 201.978 254.336 202.031 251.289Z" fill="white"/>
<path d="M202.031 251.289C202.031 244.036 194.699 238.142 185.657 238.142C176.615 238.142 169.283 244.036 169.283 251.289C169.282 252.28 169.419 253.267 169.689 254.22C177.94 250.583 190.883 253.001 198.546 259.366C200.725 257.238 201.978 254.336 202.031 251.289Z" fill="black" fill-opacity="0.75"/>
<path d="M279.454 222.952C269.557 218.352 251.367 213.528 232.984 227.338C214.601 241.148 214.996 261.922 217.241 273.807C248.716 268.159 275.222 253.097 279.454 222.952Z" fill="#FFDBDB"/>
<path d="M171.752 183.18C178.047 192.016 171.538 207.484 157.206 217.732C142.874 227.98 126.147 229.114 119.799 220.278C113.45 211.442 120.002 195.974 134.334 185.736C148.666 175.499 165.446 174.354 171.752 183.18Z" fill="white"/>
<path d="M171.752 183.18C178.047 192.016 171.538 207.484 157.206 217.732C142.874 227.98 126.147 229.114 119.799 220.278C113.45 211.442 120.002 195.974 134.334 185.736C148.666 175.499 165.446 174.354 171.752 183.18Z" fill="black" fill-opacity="0.75"/>
<path d="M199.562 183.18C193.256 192.016 199.776 207.484 214.097 217.732C228.419 227.98 245.167 229.114 251.505 220.278C257.843 211.442 251.302 195.974 236.969 185.736C222.637 175.499 205.868 174.354 199.562 183.18Z" fill="white"/>
<path d="M199.562 183.18C193.256 192.016 199.776 207.484 214.097 217.732C228.419 227.98 245.167 229.114 251.505 220.278C257.843 211.442 251.302 195.974 236.969 185.736C222.637 175.499 205.868 174.354 199.562 183.18Z" fill="black" fill-opacity="0.75"/>
<path d="M217.069 195.032C215.853 195.032 214.665 195.393 213.654 196.07C212.643 196.746 211.855 197.707 211.391 198.832C210.926 199.956 210.805 201.194 211.043 202.387C211.281 203.581 211.867 204.677 212.728 205.536C213.588 206.396 214.684 206.981 215.877 207.217C217.07 207.453 218.306 207.33 219.428 206.863C220.551 206.396 221.51 205.606 222.184 204.593C222.858 203.58 223.217 202.389 223.215 201.172C223.215 200.365 223.056 199.566 222.747 198.82C222.438 198.075 221.985 197.397 221.414 196.827C220.843 196.257 220.166 195.805 219.42 195.497C218.675 195.189 217.876 195.031 217.069 195.032ZM217.069 202.798C216.748 202.798 216.434 202.703 216.167 202.524C215.9 202.346 215.691 202.092 215.568 201.795C215.445 201.498 215.413 201.171 215.476 200.855C215.539 200.54 215.693 200.25 215.921 200.023C216.148 199.795 216.437 199.64 216.752 199.578C217.067 199.515 217.394 199.547 217.691 199.67C217.988 199.793 218.242 200.002 218.42 200.269C218.599 200.537 218.694 200.851 218.694 201.172C218.694 201.604 218.523 202.017 218.218 202.322C217.913 202.627 217.5 202.798 217.069 202.798Z" fill="white"/>
<path d="M154.236 195.032C153.021 195.041 151.836 195.409 150.831 196.091C149.825 196.773 149.044 197.738 148.586 198.864C148.128 199.99 148.014 201.226 148.258 202.417C148.501 203.608 149.092 204.7 149.955 205.555C150.819 206.41 151.916 206.99 153.108 207.221C154.3 207.453 155.535 207.326 156.655 206.855C157.775 206.385 158.73 205.594 159.401 204.58C160.072 203.567 160.428 202.377 160.424 201.162C160.422 200.352 160.261 199.55 159.949 198.803C159.636 198.056 159.179 197.378 158.604 196.808C158.029 196.238 157.347 195.788 156.597 195.483C155.847 195.178 155.045 195.025 154.236 195.032ZM154.236 202.798C153.914 202.798 153.6 202.703 153.333 202.524C153.066 202.346 152.858 202.092 152.735 201.795C152.612 201.498 152.579 201.171 152.642 200.855C152.705 200.54 152.86 200.25 153.087 200.023C153.314 199.795 153.603 199.64 153.919 199.578C154.234 199.515 154.56 199.547 154.857 199.67C155.154 199.793 155.408 200.002 155.586 200.269C155.765 200.537 155.86 200.851 155.86 201.172C155.86 201.386 155.818 201.597 155.736 201.795C155.655 201.992 155.535 202.171 155.384 202.322C155.233 202.473 155.054 202.593 154.857 202.675C154.66 202.756 154.449 202.798 154.236 202.798Z" fill="white"/>
<path d="M258.955 125.211C262.467 126.243 265.565 128.358 267.806 131.254C270.048 134.151 271.319 137.681 271.438 141.343C271.438 145.279 267.74 147.237 263.038 136.508C259.521 128.495 250.212 128.634 251.399 126.431C252.339 124.687 256.326 124.495 258.955 125.211Z" fill="white"/>
<path d="M258.955 125.211C262.467 126.243 265.565 128.358 267.806 131.254C270.048 134.151 271.319 137.681 271.438 141.343C271.438 145.279 267.74 147.237 263.038 136.508C259.521 128.495 250.212 128.634 251.399 126.431C252.339 124.687 256.326 124.495 258.955 125.211Z" fill="black" fill-opacity="0.75"/>
<path d="M112.434 125.211C108.922 126.243 105.825 128.358 103.583 131.254C101.342 134.151 100.071 137.681 99.9512 141.343C99.9512 145.279 103.66 147.237 108.352 136.508C111.868 128.495 121.177 128.634 120.001 126.431C119.082 124.687 115.074 124.495 112.434 125.211Z" fill="white"/>
<path d="M112.434 125.211C108.922 126.243 105.825 128.358 103.583 131.254C101.342 134.151 100.071 137.681 99.9512 141.343C99.9512 145.279 103.66 147.237 108.352 136.508C111.868 128.495 121.177 128.634 120.001 126.431C119.082 124.687 115.074 124.495 112.434 125.211Z" fill="black" fill-opacity="0.75"/>
<path d="M185.315 119.98C190.445 76.8277 261.658 85.8454 299.674 85.0752C330.412 84.4441 346.828 81.1707 344.691 48.0414C343.943 36.36 354.438 -4.85656 292.438 0.641826C230.439 6.14021 122.332 -1.01625 82.8511 0.139058C43.3705 1.29436 29.0916 9.57403 28.3435 45.2922C27.5954 81.0103 33.0034 87.6105 90.7922 84.4441C166.002 80.2829 185.315 119.98 185.315 119.98Z" fill="white"/>
<path d="M185.315 119.98C190.445 76.8277 261.658 85.8454 299.674 85.0752C330.412 84.4441 346.828 81.1707 344.691 48.0414C343.943 36.36 354.438 -4.85656 292.438 0.641826C230.439 6.14021 122.332 -1.01625 82.8511 0.139058C43.3705 1.29436 29.0916 9.57403 28.3435 45.2922C27.5954 81.0103 33.0034 87.6105 90.7922 84.4441C166.002 80.2829 185.315 119.98 185.315 119.98Z" fill="black" fill-opacity="0.75"/>
<path d="M73.0566 38.9894C71.9173 38.9894 71.0352 39.4191 70.4102 40.2785C69.7852 41.1313 69.4727 42.3227 69.4727 43.8527C69.4727 47.0363 70.6673 48.6281 73.0566 48.6281C74.0592 48.6281 75.2734 48.3774 76.6992 47.8761V50.4152C75.5273 50.9035 74.2188 51.1476 72.7734 51.1476C70.6966 51.1476 69.1081 50.5194 68.0078 49.2628C66.9076 47.9998 66.3574 46.1899 66.3574 43.8332C66.3574 42.3488 66.6276 41.05 67.168 39.9367C67.7083 38.8169 68.4831 37.9608 69.4922 37.3683C70.5078 36.7694 71.696 36.4699 73.0566 36.4699C74.4434 36.4699 75.8366 36.8052 77.2363 37.4757L76.2598 39.9367C75.7259 39.6828 75.1888 39.4614 74.6484 39.2726C74.1081 39.0838 73.5775 38.9894 73.0566 38.9894ZM88.5449 40.0343V42.2707H84.9707V50.9523H81.9922V42.2707H78.4082V40.0343H88.5449ZM96.582 51.1476C95.2995 51.1476 94.2936 50.6821 93.5645 49.7511H93.4082C93.5124 50.6626 93.5645 51.1899 93.5645 51.3332V55.757H90.5859V40.0343H93.0078L93.4277 41.4503H93.5645C94.2611 40.3696 95.293 39.8293 96.6602 39.8293C97.9492 39.8293 98.9583 40.3273 99.6875 41.3234C100.417 42.3195 100.781 43.703 100.781 45.4738C100.781 46.6391 100.609 47.6515 100.264 48.5109C99.9251 49.3703 99.4401 50.0246 98.8086 50.4738C98.1771 50.923 97.4349 51.1476 96.582 51.1476ZM95.7031 42.2121C94.9674 42.2121 94.4303 42.4399 94.0918 42.8957C93.7533 43.3449 93.5775 44.0903 93.5645 45.132V45.4543C93.5645 46.6261 93.737 47.466 94.082 47.9738C94.4336 48.4816 94.987 48.7355 95.7422 48.7355C97.0768 48.7355 97.7441 47.6352 97.7441 45.4347C97.7441 44.3605 97.5781 43.5565 97.2461 43.0226C96.9206 42.4822 96.4062 42.2121 95.7031 42.2121ZM110.176 50.9523L109.6 49.4679H109.521C109.02 50.0994 108.503 50.5389 107.969 50.7863C107.441 51.0272 106.751 51.1476 105.898 51.1476C104.85 51.1476 104.023 50.8481 103.418 50.2492C102.819 49.6502 102.52 48.7974 102.52 47.6906C102.52 46.5317 102.923 45.6789 103.73 45.132C104.544 44.5786 105.768 44.2726 107.402 44.214L109.297 44.1554V43.6769C109.297 42.5701 108.73 42.0168 107.598 42.0168C106.725 42.0168 105.7 42.2804 104.521 42.8078L103.535 40.7961C104.792 40.1385 106.185 39.8097 107.715 39.8097C109.18 39.8097 110.303 40.1287 111.084 40.7668C111.865 41.4048 112.256 42.3748 112.256 43.6769V50.9523H110.176ZM109.297 45.8937L108.145 45.9328C107.279 45.9588 106.634 46.1151 106.211 46.4015C105.788 46.688 105.576 47.1242 105.576 47.7101C105.576 48.55 106.058 48.9699 107.021 48.9699C107.712 48.9699 108.262 48.7713 108.672 48.3742C109.089 47.977 109.297 47.4497 109.297 46.7921V45.8937ZM118.311 40.0343V44.2336H122.471V40.0343H125.449V50.9523H122.471V46.4503H118.311V50.9523H115.332V40.0343H118.311ZM131.455 40.0343V44.3507C131.455 44.8065 131.38 45.9197 131.23 47.6906L136.27 40.0343H139.854V50.9523H136.973V46.5968C136.973 45.8221 137.038 44.7283 137.168 43.3156L132.148 50.9523H128.574V40.0343H131.455ZM153.311 48.7746H154.902V54.8683H152.227V50.9523H142.988V40.0343H145.967V48.716H150.322V40.0343H153.311V48.7746ZM163.691 50.9523L163.115 49.4679H163.037C162.536 50.0994 162.018 50.5389 161.484 50.7863C160.957 51.0272 160.267 51.1476 159.414 51.1476C158.366 51.1476 157.539 50.8481 156.934 50.2492C156.335 49.6502 156.035 48.7974 156.035 47.6906C156.035 46.5317 156.439 45.6789 157.246 45.132C158.06 44.5786 159.284 44.2726 160.918 44.214L162.812 44.1554V43.6769C162.812 42.5701 162.246 42.0168 161.113 42.0168C160.241 42.0168 159.215 42.2804 158.037 42.8078L157.051 40.7961C158.307 40.1385 159.701 39.8097 161.23 39.8097C162.695 39.8097 163.818 40.1287 164.6 40.7668C165.381 41.4048 165.771 42.3748 165.771 43.6769V50.9523H163.691ZM162.812 45.8937L161.66 45.9328C160.794 45.9588 160.15 46.1151 159.727 46.4015C159.303 46.688 159.092 47.1242 159.092 47.7101C159.092 48.55 159.574 48.9699 160.537 48.9699C161.227 48.9699 161.777 48.7713 162.188 48.3742C162.604 47.977 162.812 47.4497 162.812 46.7921V45.8937ZM177.021 40.0343V44.2336H181.182V40.0343H184.16V50.9523H181.182V46.4503H177.021V50.9523H174.043V40.0343H177.021ZM191.807 41.9484C191.175 41.9484 190.68 42.1502 190.322 42.5539C189.964 42.951 189.759 43.5174 189.707 44.2531H193.887C193.874 43.5174 193.682 42.951 193.311 42.5539C192.939 42.1502 192.438 41.9484 191.807 41.9484ZM192.227 51.1476C190.469 51.1476 189.095 50.6626 188.105 49.6925C187.116 48.7225 186.621 47.3488 186.621 45.5714C186.621 43.742 187.077 42.3293 187.988 41.3332C188.906 40.3306 190.173 39.8293 191.787 39.8293C193.33 39.8293 194.531 40.2687 195.391 41.1476C196.25 42.0265 196.68 43.2407 196.68 44.7902V46.2355H189.639C189.671 47.0819 189.922 47.7427 190.391 48.2179C190.859 48.6932 191.517 48.9308 192.363 48.9308C193.021 48.9308 193.643 48.8625 194.229 48.7257C194.814 48.589 195.426 48.3709 196.064 48.0714V50.3761C195.544 50.6365 194.987 50.8286 194.395 50.9523C193.802 51.0825 193.079 51.1476 192.227 51.1476ZM207.275 40.0343V44.2336H211.436V40.0343H214.414V50.9523H211.436V46.4503H207.275V50.9523H204.297V40.0343H207.275ZM224.473 50.9523L223.896 49.4679H223.818C223.317 50.0994 222.799 50.5389 222.266 50.7863C221.738 51.0272 221.048 51.1476 220.195 51.1476C219.147 51.1476 218.32 50.8481 217.715 50.2492C217.116 49.6502 216.816 48.7974 216.816 47.6906C216.816 46.5317 217.22 45.6789 218.027 45.132C218.841 44.5786 220.065 44.2726 221.699 44.214L223.594 44.1554V43.6769C223.594 42.5701 223.027 42.0168 221.895 42.0168C221.022 42.0168 219.997 42.2804 218.818 42.8078L217.832 40.7961C219.089 40.1385 220.482 39.8097 222.012 39.8097C223.477 39.8097 224.6 40.1287 225.381 40.7668C226.162 41.4048 226.553 42.3748 226.553 43.6769V50.9523H224.473ZM223.594 45.8937L222.441 45.9328C221.576 45.9588 220.931 46.1151 220.508 46.4015C220.085 46.688 219.873 47.1242 219.873 47.7101C219.873 48.55 220.355 48.9699 221.318 48.9699C222.008 48.9699 222.559 48.7713 222.969 48.3742C223.385 47.977 223.594 47.4497 223.594 46.7921V45.8937ZM232.51 40.0343V44.3507C232.51 44.8065 232.435 45.9197 232.285 47.6906L237.324 40.0343H240.908V50.9523H238.027V46.5968C238.027 45.8221 238.092 44.7283 238.223 43.3156L233.203 50.9523H229.629V40.0343H232.51ZM240.029 35.3371C239.906 36.5545 239.447 37.4432 238.652 38.0031C237.858 38.5565 236.712 38.8332 235.215 38.8332C233.672 38.8332 232.529 38.5662 231.787 38.0324C231.051 37.4985 230.638 36.6001 230.547 35.3371H233.213C233.258 36.0076 233.424 36.4796 233.711 36.7531C234.004 37.02 234.525 37.1535 235.273 37.1535C235.931 37.1535 236.419 37.007 236.738 36.714C237.064 36.4145 237.262 35.9556 237.334 35.3371H240.029ZM250.879 48.7746V42.2707H248.643C248.48 43.4816 248.255 44.6307 247.969 45.7179C247.689 46.8052 247.298 47.824 246.797 48.7746H250.879ZM255.459 54.8683H252.783V50.9523H245.439V54.8683H242.764V48.7746H243.682C244.307 47.8045 244.831 46.5806 245.254 45.1027C245.677 43.6248 245.973 41.9354 246.143 40.0343H253.857V48.7746H255.459V54.8683ZM261.846 41.9484C261.214 41.9484 260.719 42.1502 260.361 42.5539C260.003 42.951 259.798 43.5174 259.746 44.2531H263.926C263.913 43.5174 263.721 42.951 263.35 42.5539C262.979 42.1502 262.477 41.9484 261.846 41.9484ZM262.266 51.1476C260.508 51.1476 259.134 50.6626 258.145 49.6925C257.155 48.7225 256.66 47.3488 256.66 45.5714C256.66 43.742 257.116 42.3293 258.027 41.3332C258.945 40.3306 260.212 39.8293 261.826 39.8293C263.369 39.8293 264.57 40.2687 265.43 41.1476C266.289 42.0265 266.719 43.2407 266.719 44.7902V46.2355H259.678C259.71 47.0819 259.961 47.7427 260.43 48.2179C260.898 48.6932 261.556 48.9308 262.402 48.9308C263.06 48.9308 263.682 48.8625 264.268 48.7257C264.854 48.589 265.465 48.3709 266.104 48.0714V50.3761C265.583 50.6365 265.026 50.8286 264.434 50.9523C263.841 51.0825 263.118 51.1476 262.266 51.1476ZM272.119 40.0343V44.2336H276.279V40.0343H279.258V50.9523H276.279V46.4503H272.119V50.9523H269.141V40.0343H272.119ZM289.316 50.9523L288.74 49.4679H288.662C288.161 50.0994 287.643 50.5389 287.109 50.7863C286.582 51.0272 285.892 51.1476 285.039 51.1476C283.991 51.1476 283.164 50.8481 282.559 50.2492C281.96 49.6502 281.66 48.7974 281.66 47.6906C281.66 46.5317 282.064 45.6789 282.871 45.132C283.685 44.5786 284.909 44.2726 286.543 44.214L288.438 44.1554V43.6769C288.438 42.5701 287.871 42.0168 286.738 42.0168C285.866 42.0168 284.84 42.2804 283.662 42.8078L282.676 40.7961C283.932 40.1385 285.326 39.8097 286.855 39.8097C288.32 39.8097 289.443 40.1287 290.225 40.7668C291.006 41.4048 291.396 42.3748 291.396 43.6769V50.9523H289.316ZM288.438 45.8937L287.285 45.9328C286.419 45.9588 285.775 46.1151 285.352 46.4015C284.928 46.688 284.717 47.1242 284.717 47.7101C284.717 48.55 285.199 48.9699 286.162 48.9699C286.852 48.9699 287.402 48.7713 287.812 48.3742C288.229 47.977 288.438 47.4497 288.438 46.7921V45.8937Z" fill="white"/>
</g>
<defs>
<clipPath id="clip0_2002_2263">
<rect width="370" height="305" fill="white"/>
</clipPath>
</defs>
</svg>
