<svg width="16" height="17" viewBox="0 0 16 17" fill="none" xmlns="http://www.w3.org/2000/svg">
<g clip-path="url(#clip0_2232_5796)">
<path fill-rule="evenodd" clip-rule="evenodd" d="M8 16.5C3.58916 16.5 0 12.9115 0 8.5C0 4.08916 3.58916 0.5 8 0.5C12.4115 0.5 16 4.08916 16 8.5C16 12.9115 12.4115 16.5 8 16.5ZM10.1069 10.9044C10.2185 10.988 10.3486 11.0283 10.4781 11.0283C10.6671 11.0283 10.853 10.9434 10.9745 10.7798C11.1802 10.5065 11.1245 10.118 10.8506 9.91288L8.61974 8.23976V4.83154C8.61974 4.48948 8.34212 4.21185 8.00006 4.21185C7.658 4.21185 7.38037 4.48948 7.38037 4.83154V8.54957C7.38037 8.74479 7.47209 8.92882 7.62824 9.04532L10.1069 10.9044Z" fill="#E3E1C5"/>
</g>
<defs>
<clipPath id="clip0_2232_5796">
<rect width="16" height="16" fill="white" transform="translate(0 0.5)"/>
</clipPath>
</defs>
</svg>
