<svg width="20" height="20" viewBox="0 0 20 20" fill="none" xmlns="http://www.w3.org/2000/svg">
<path d="M5 0C4.3125 0 3.75 0.5625 3.75 1.25V18.75C3.75 19.4375 4.3125 20 5 20H17.5C18.1875 20 18.75 19.4375 18.75 18.75V5L13.75 0H5Z" fill="#E2E5E7"/>
<path d="M15 5H18.75L13.75 0V3.75C13.75 4.4375 14.3125 5 15 5Z" fill="#B0B7BD"/>
<path d="M18.75 8.75L15 5H18.75V8.75Z" fill="#CAD1D8"/>
<path d="M16.25 16.25C16.25 16.5938 15.9688 16.875 15.625 16.875H1.875C1.53125 16.875 1.25 16.5938 1.25 16.25V10C1.25 9.65625 1.53125 9.375 1.875 9.375H15.625C15.9688 9.375 16.25 9.65625 16.25 10V16.25Z" fill="#F15642"/>
<path d="M3.97461 11.8419C3.97461 11.6769 4.10461 11.4969 4.31398 11.4969H5.46836C6.11836 11.4969 6.70336 11.9319 6.70336 12.7656C6.70336 13.5556 6.11836 13.9956 5.46836 13.9956H4.63398V14.6556C4.63398 14.8756 4.49398 15 4.31398 15C4.14898 15 3.97461 14.8756 3.97461 14.6556V11.8419ZM4.63398 12.1263V13.3713H5.46836C5.80336 13.3713 6.06836 13.0756 6.06836 12.7656C6.06836 12.4163 5.80336 12.1263 5.46836 12.1263H4.63398Z" fill="white"/>
<path d="M7.68289 15C7.51789 15 7.33789 14.91 7.33789 14.6906V11.8519C7.33789 11.6725 7.51789 11.5419 7.68289 11.5419H8.82726C11.111 11.5419 11.061 15 8.87226 15H7.68289ZM7.99789 12.1519V14.3906H8.82726C10.1766 14.3906 10.2366 12.1519 8.82726 12.1519H7.99789Z" fill="white"/>
<path d="M11.8705 12.1919V12.9863H13.1449C13.3249 12.9863 13.5049 13.1663 13.5049 13.3406C13.5049 13.5056 13.3249 13.6406 13.1449 13.6406H11.8705V14.69C11.8705 14.865 11.7462 14.9994 11.5712 14.9994C11.3512 14.9994 11.2168 14.865 11.2168 14.69V11.8513C11.2168 11.6719 11.3518 11.5413 11.5712 11.5413H13.3256C13.5456 11.5413 13.6756 11.6719 13.6756 11.8513C13.6756 12.0113 13.5456 12.1913 13.3256 12.1913H11.8705V12.1919Z" fill="white"/>
<path d="M15.625 16.875H3.75V17.5H15.625C15.9688 17.5 16.25 17.2188 16.25 16.875V16.25C16.25 16.5938 15.9688 16.875 15.625 16.875Z" fill="#CAD1D8"/>
</svg>
