<svg width="16" height="17" viewBox="0 0 16 17" fill="none" xmlns="http://www.w3.org/2000/svg">
<g clip-path="url(#clip0_2232_5798)">
<path d="M15.8583 3.67877L11.0059 8.49999L15.8583 13.3212C15.946 13.1379 15.9993 12.9352 15.9993 12.7187V4.28124C15.9993 4.06477 15.946 3.86212 15.8583 3.67877Z" fill="#E3E1C5"/>
<path d="M14.5947 2.875H1.40716C1.19069 2.875 0.988031 2.92822 0.804688 3.01594L7.00666 9.18667C7.55503 9.73504 8.44678 9.73504 8.99516 9.18667L15.1971 3.01594C15.0138 2.92822 14.8111 2.875 14.5947 2.875Z" fill="#E3E1C5"/>
<path d="M0.140938 3.67877C0.0532188 3.86212 0 4.06477 0 4.28124V12.7187C0 12.9352 0.0532188 13.1379 0.140938 13.3212L4.99341 8.49999L0.140938 3.67877Z" fill="#E3E1C5"/>
<path d="M10.3447 9.16284L9.658 9.8495C8.74428 10.7632 7.2575 10.7632 6.34378 9.8495L5.65716 9.16284L0.804688 13.9841C0.988031 14.0718 1.19069 14.125 1.40716 14.125H14.5947C14.8111 14.125 15.0138 14.0718 15.1971 13.9841L10.3447 9.16284Z" fill="#E3E1C5"/>
</g>
<defs>
<clipPath id="clip0_2232_5798">
<rect width="16" height="16" fill="white" transform="translate(0 0.5)"/>
</clipPath>
</defs>
</svg>
