<svg width="16" height="17" viewBox="0 0 16 17" fill="none" xmlns="http://www.w3.org/2000/svg">
<g clip-path="url(#clip0_2232_5797)">
<path d="M3.26133 11.1357C4.83945 13.0222 6.73916 14.5075 8.90742 15.5584C9.73295 15.9496 10.837 16.4138 12.067 16.4934C12.1432 16.4967 12.2162 16.5 12.2924 16.5C13.1179 16.5 13.781 16.2149 14.3214 15.6281C14.3247 15.6247 14.3314 15.6181 14.3347 15.6115C14.527 15.3794 14.7458 15.1705 14.9746 14.9484C15.1304 14.7992 15.2895 14.6434 15.442 14.4843C16.1482 13.7482 16.1482 12.8133 15.4354 12.1005L13.4428 10.108C13.1047 9.75653 12.7002 9.57087 12.2758 9.57087C11.8515 9.57087 11.4437 9.75653 11.0956 10.1046L9.90866 11.2915C9.79925 11.2286 9.68653 11.1722 9.58044 11.1191C9.44782 11.0528 9.32515 10.9898 9.21575 10.9202C8.13493 10.2339 7.15358 9.33879 6.21533 8.18835C5.74123 7.58827 5.42296 7.08433 5.20083 6.57045C5.51247 6.28864 5.80423 5.99358 6.08603 5.70514C6.18549 5.60236 6.28827 5.49959 6.39105 5.39681C6.74911 5.03875 6.9414 4.62433 6.9414 4.20327C6.9414 3.78222 6.75242 3.3678 6.39105 3.00974L5.40307 2.02176C5.28703 1.90572 5.17762 1.793 5.0649 1.67696C4.84608 1.45151 4.61732 1.21944 4.39188 1.01057C4.05039 0.675715 3.64923 0.5 3.22486 0.5C2.80381 0.5 2.39934 0.675715 2.04459 1.01388L0.804641 2.25383C0.35375 2.70472 0.0984656 3.25176 0.0454196 3.885C-0.0175725 4.67737 0.128304 5.51948 0.506257 6.5373C1.08645 8.1121 1.96171 9.57418 3.26133 11.1357Z" fill="#E3E1C5"/>
</g>
<defs>
<clipPath id="clip0_2232_5797">
<rect width="16" height="16" fill="white" transform="translate(0 0.5)"/>
</clipPath>
</defs>
</svg>
