<svg width="20" height="20" viewBox="0 0 20 20" fill="none" xmlns="http://www.w3.org/2000/svg">
<g clip-path="url(#clip0_1451_1289)">
<path d="M1.22556 8.93362L13.1396 4.02346C14.3154 3.51174 18.3037 1.87502 18.3037 1.87502C18.3037 1.87502 20.1435 1.16018 19.9912 2.89846C19.9404 3.6133 19.5303 6.12112 19.1201 8.82815L17.8427 16.8555C17.8427 16.8555 17.7412 18.0313 16.8701 18.2344C15.999 18.4375 14.5693 17.5196 14.3154 17.3125C14.1123 17.1602 10.4795 14.8594 9.15134 13.7344C8.79197 13.4258 8.38572 12.8125 9.20212 12.0977C11.042 10.418 13.2412 8.32033 14.5693 6.99221C15.1826 6.37893 15.7959 4.94533 13.2412 6.68362L6.03025 11.543C6.03025 11.543 5.21384 12.0547 3.67868 11.5938C2.14743 11.1328 0.354463 10.5196 0.354463 10.5196C0.354463 10.5196 -0.8721 9.75002 1.22556 8.93362Z" fill="white"/>
</g>
<defs>
<clipPath id="clip0_1451_1289">
<rect width="20" height="20" fill="white"/>
</clipPath>
</defs>
</svg>
