<svg width="20" height="20" viewBox="0 0 20 20" fill="none" xmlns="http://www.w3.org/2000/svg">
<g clip-path="url(#clip0_1451_1293)">
<path d="M19.2373 4.81244V4.78509C18.7725 2.89056 16.6631 0.859314 14.7334 0.449158H14.7061C11.5889 -0.148499 8.41309 -0.148499 5.29199 0.449158H5.26465C3.33496 0.867126 1.22949 2.89056 0.760742 4.78509V4.81244C0.186523 7.44134 0.186523 10.1249 0.760742 12.746V12.7734C1.20996 14.582 3.15527 16.5156 5.01074 17.039V19.1484C5.01074 19.9218 5.94043 20.2929 6.47559 19.7343L8.61231 17.5195C9.08106 17.5468 9.53028 17.5585 9.99903 17.5585C11.5732 17.5585 13.1436 17.4101 14.7061 17.1015H14.7334C16.667 16.6835 18.7686 14.6601 19.2373 12.7656V12.7382C19.8076 10.1093 19.8076 7.43353 19.2373 4.81244ZM17.542 12.3671C17.2373 13.5898 15.6397 15.1288 14.3701 15.4062C12.7022 15.7265 11.0381 15.8554 9.3584 15.8046C9.33106 15.8046 9.29199 15.8163 9.28028 15.8437C9.03809 16.0859 7.71777 17.4452 7.71777 17.4452L6.05371 19.1523C5.93652 19.2773 5.72168 19.1992 5.72168 19.0234V15.5273C5.72168 15.4765 5.68262 15.4218 5.63184 15.4101C4.99512 15.2656 4.28418 14.8124 3.68652 14.2499C3.08887 13.6757 2.61231 12.9804 2.44824 12.3671C1.94043 9.9765 1.94043 7.57025 2.44824 5.17963C2.76856 3.95697 4.36231 2.41791 5.63184 2.14056C8.53418 1.59369 11.4717 1.59369 14.374 2.14056C14.5498 2.17963 14.7373 2.24213 14.9209 2.32806C14.9639 2.34759 15.0029 2.36713 15.0459 2.38666C15.0654 2.39838 15.0889 2.40619 15.1084 2.41791C15.167 2.44916 15.2256 2.48041 15.2842 2.51556C15.3076 2.53119 15.335 2.54681 15.3623 2.56244C15.9873 2.94134 16.5967 3.51556 17.0225 4.11322C17.0537 4.15619 17.0811 4.19525 17.1084 4.23822C17.124 4.25775 17.1357 4.28119 17.1475 4.30072C17.1787 4.3515 17.21 4.39838 17.2373 4.44916C17.2647 4.49994 17.292 4.54681 17.3193 4.59759C17.3467 4.65228 17.374 4.71088 17.4014 4.76556C17.4287 4.82416 17.4522 4.88275 17.4756 4.94525C17.4834 4.96478 17.4912 4.98431 17.4951 5.00385C17.5147 5.06244 17.5303 5.12103 17.5459 5.17572C17.6279 5.54681 17.6943 5.92181 17.7529 6.29681C17.7647 6.37103 17.7764 6.44525 17.7842 6.51947C18.0459 8.47259 17.9678 10.4296 17.542 12.3671ZM14.4131 12.539C14.1592 13.0742 13.7998 13.5273 13.2686 13.8202C13.1201 13.8984 12.9639 13.9257 12.7998 13.9687C12.8076 13.9648 12.8115 13.957 12.8076 13.9531C12.8232 13.9257 12.7061 13.9257 12.71 13.9492C12.7061 13.9531 12.7061 13.9609 12.7217 13.9687C12.5459 13.9179 12.3779 13.8788 12.2139 13.8046C10.417 13.0546 8.77637 12.0976 7.46777 10.6328C6.71777 9.79291 6.14746 8.86322 5.65137 7.85931C5.40918 7.37884 5.22168 6.88275 5.02637 6.40619C4.83887 5.94916 5.10449 5.49994 5.38574 5.16791C5.65137 4.8476 5.99902 4.60931 6.37402 4.43353C6.65527 4.28509 6.94824 4.36713 7.14746 4.62103C7.61621 5.14056 8.02637 5.70306 8.3584 6.31244C8.57324 6.68353 8.52246 7.15228 8.13184 7.40619C8.05371 7.4726 7.95606 7.53509 7.87793 7.62103C7.79981 7.67181 7.72949 7.73822 7.67481 7.82416C7.58496 7.98822 7.58496 8.15619 7.63574 8.33197C8.10449 9.61322 8.89356 10.5976 10.1826 11.1445C10.3857 11.2226 10.5928 11.3203 10.835 11.2929C11.2178 11.2538 11.3545 10.8124 11.6357 10.582C11.9014 10.3554 12.2607 10.3554 12.5537 10.5429C12.8467 10.7304 13.1279 10.9257 13.4053 11.1288C13.6865 11.332 13.9639 11.5117 14.2178 11.7421C14.4639 11.9648 14.5576 12.246 14.4131 12.539ZM12.3154 8.18353C12.2881 8.30072 12.21 8.35931 12.1123 8.37103H12.0342C11.8701 8.34369 11.792 8.24213 11.7803 8.08978C11.7686 7.96088 11.7529 7.83588 11.7295 7.71869C11.6631 7.4765 11.542 7.24994 11.3467 7.10541C11.2568 7.039 11.1318 6.98822 11.0264 6.95697C10.8779 6.90619 10.7334 6.91791 10.585 6.89056C10.4365 6.8515 10.3428 6.71478 10.3701 6.57025C10.3975 6.44134 10.5186 6.34369 10.6631 6.34369C11.5732 6.40228 12.2256 6.88275 12.3154 7.95306C12.3154 8.01947 12.3311 8.10541 12.3154 8.18353ZM13.5654 8.3515V8.41791C13.5654 8.45697 13.5654 8.52338 13.5537 8.59369C13.4873 8.82025 13.124 8.84759 13.0459 8.62103C13.0186 8.54291 13.0186 8.45697 13.0186 8.39447C13.0186 7.88666 12.9131 7.39056 12.6592 6.96869C12.3975 6.53119 11.9951 6.15619 11.5459 5.92572C11.2647 5.79681 10.96 5.69916 10.6553 5.64447C10.5264 5.63275 10.3897 5.61713 10.2568 5.59369C10.0928 5.58197 10.0029 5.4765 10.0146 5.31244C10.0264 5.164 10.1318 5.05853 10.2959 5.05853C10.8311 5.09759 11.3506 5.20697 11.8311 5.45697C12.8076 5.9765 13.3662 6.79291 13.5225 7.87103C13.5225 7.92181 13.5342 7.96088 13.5342 8.01947C13.5537 8.12494 13.5654 8.2226 13.5654 8.3515ZM14.542 9.26947C14.3545 9.26947 14.2607 9.12103 14.249 8.94916C14.2373 8.61713 14.21 8.28509 14.1709 7.94525C13.9287 6.19916 12.5303 4.76166 10.7998 4.44916C10.5459 4.39838 10.2803 4.38275 10.0107 4.35931C9.83496 4.34759 9.62793 4.33197 9.58106 4.13275C9.55371 3.95697 9.69824 3.81244 9.86231 3.80072H9.99121C12.335 3.86713 14.2568 5.42963 14.6748 7.73431C14.7412 8.13275 14.7647 8.53509 14.8037 8.93353C14.8232 9.11322 14.7178 9.26947 14.542 9.26947Z" fill="white"/>
</g>
<defs>
<clipPath id="clip0_1451_1293">
<rect width="20" height="20" fill="white"/>
</clipPath>
</defs>
</svg>
