<svg width="20" height="20" viewBox="0 0 20 20" fill="none" xmlns="http://www.w3.org/2000/svg">
<g clip-path="url(#clip0_1451_1291)">
<path d="M10.0117 0C4.49609 0 0.0273438 4.48047 0.0273438 9.97266C0.0273438 11.7578 0.496094 13.5078 1.40234 15.0234L0 20L5.125 18.6797C6.625 19.5195 8.29297 19.9492 10.0156 19.9492C15.5312 19.9492 20.0039 15.4844 20.0039 9.97656C20 4.48047 15.5273 0 10.0117 0ZM10.0117 18.2617C8.49219 18.2617 7 17.8398 5.70312 17.0508L5.39844 16.8633L2.43359 17.625L3.23438 14.7617L3.03125 14.4414C2.17578 13.1211 1.72266 11.5781 1.72266 9.97656C1.72266 5.41406 5.4375 1.69531 10.0156 1.69531C14.5977 1.69531 18.3086 5.41406 18.3086 9.96875C18.3047 14.543 14.5898 18.2617 10.0117 18.2617ZM15.0977 12.5195L14.9922 13C14.875 13.5469 14.5508 14.0273 14.0859 14.3359C13.5 14.707 12.7227 14.8945 11.7539 14.6289C8.72266 13.7617 7 11.7656 6.08203 10.5078C5.16406 9.25 4.8125 8 5.03906 6.97266C5.1875 6.29688 5.69141 5.76172 5.99609 5.49609C6.16016 5.36719 6.35547 5.29297 6.55859 5.29297L7.21094 5.33203C7.32812 5.34375 7.45313 5.41016 7.50391 5.53516L8.4375 7.75C8.48828 7.86719 8.46484 8.00391 8.38672 8.09375L7.57031 9.03906C7.50391 9.11719 7.49219 9.22656 7.53125 9.32031C8.61328 11.3984 10.5898 12.2227 11.1758 12.4375C11.2812 12.4648 11.3906 12.4375 11.457 12.3477L12.3125 11.2422C12.418 11.125 12.5781 11.0781 12.7227 11.1367L14.9141 12.1523C15.0586 12.2148 15.125 12.375 15.0977 12.5195Z" fill="white"/>
</g>
<defs>
<clipPath id="clip0_1451_1291">
<rect width="20" height="20" fill="white"/>
</clipPath>
</defs>
</svg>
