<svg width="36" height="36" viewBox="0 0 36 36" fill="none" xmlns="http://www.w3.org/2000/svg">
<path d="M18 36C27.9411 36 36 27.9411 36 18C36 8.05887 27.9411 0 18 0C8.05887 0 0 8.05887 0 18C0 27.9411 8.05887 36 18 36Z" fill="#475993"/>
<path d="M22.8867 19.5609C23.2242 19.5609 23.4281 19.2867 23.4914 19.0195L23.8289 15.9047C23.8289 15.5672 23.5617 15.2297 23.2242 15.2297H19.5117V12.5859C19.5117 11.4328 19.8492 10.6242 21.5367 10.6242H23.6953V6.75H20.5312C17.4305 6.75 15.2719 8.64844 15.2719 12.1711V15.2227H12.1641V19.5609H15.2648V29.25H19.582V19.5609H22.8867Z" fill="white"/>
</svg>
