<svg width="36" height="36" viewBox="0 0 36 36" fill="none" xmlns="http://www.w3.org/2000/svg">
<path d="M18 36C27.9411 36 36 27.9411 36 18C36 8.05887 27.9411 0 18 0C8.05887 0 0 8.05887 0 18C0 27.9411 8.05887 36 18 36Z" fill="#EE8208"/>
<path d="M18.022 6.74993C14.9072 6.68665 12.3478 9.24602 12.2775 12.3609C12.2775 15.539 14.8369 18.1054 17.9517 18.1054C21.1298 18.1054 23.6962 15.6093 23.6962 12.4945C23.7033 9.31633 21.2072 6.74993 18.022 6.74993ZM18.022 15.2015C16.4962 15.2015 15.2517 14.0202 15.2517 12.4945C15.1884 10.9054 16.4329 9.65383 18.022 9.65383C19.5478 9.65383 20.7783 10.8984 20.7783 12.4241C20.7783 13.9499 19.5478 15.2015 18.022 15.2015ZM24.3923 20.3835C23.7033 21.0726 22.8736 21.6281 21.9033 21.9726C21.0033 22.3171 20.0329 22.4577 19.1329 22.5984C19.2665 22.732 19.3369 22.8023 19.4072 22.9429C20.722 24.2577 22.0368 25.5726 23.2814 26.8171C23.6962 27.232 23.8369 27.7804 23.5556 28.3359C23.2814 28.8913 22.7259 29.2991 22.1001 29.2359C21.7556 29.2359 21.4743 29.032 21.2001 28.7507C20.2368 27.7874 19.1892 26.8101 18.2962 25.7765C18.022 25.5023 17.8814 25.5726 17.6072 25.7765C16.6439 26.8101 15.5962 27.7874 14.6329 28.7507C14.1478 29.1656 13.6697 29.3062 13.1142 29.0249C12.5587 28.7437 12.2142 28.1952 12.2142 27.6398C12.2142 27.2249 12.4181 26.9507 12.6994 26.6765C14.0142 25.3616 15.2587 24.1171 16.5736 22.8023C16.6439 22.732 16.7072 22.5984 16.8478 22.5281C15.1181 22.3241 13.529 21.9023 12.2142 20.8687C12.0806 20.7351 11.8697 20.5945 11.729 20.4538C11.1033 19.8984 11.1033 19.2093 11.5251 18.5835C11.94 18.0281 12.5587 17.8945 13.3251 18.1687C13.4587 18.239 13.5993 18.3023 13.74 18.3726C16.229 20.1023 19.6884 20.1726 22.2478 18.4429C22.522 18.239 22.7329 18.0984 23.0775 18.0281C23.7033 17.8945 24.2517 18.0984 24.5329 18.6538C24.8704 19.2796 24.8704 19.8984 24.3923 20.3835Z" fill="white"/>
</svg>
