<svg width="36" height="36" viewBox="0 0 36 36" fill="none" xmlns="http://www.w3.org/2000/svg">
<path d="M18 36C27.9411 36 36 27.9411 36 18C36 8.05887 27.9411 0 18 0C8.05887 0 0 8.05887 0 18C0 27.9411 8.05887 36 18 36Z" fill="#436EAB"/>
<path d="M28.61 24.3844H25.3335C24.4686 24.4476 23.8007 24.1312 23.2311 23.5195C22.7882 23.0414 22.3663 22.5633 21.9233 22.0851C21.7335 21.8953 21.5436 21.7055 21.3186 21.5719C20.8757 21.2836 20.4889 21.382 20.2358 21.825C19.9827 22.3031 19.9194 22.8164 19.8843 23.3578C19.8561 24.1242 19.6311 24.3492 18.8366 24.3773C17.1772 24.4406 15.6163 24.2156 14.1538 23.3578C12.8811 22.6266 11.8616 21.5719 11.0038 20.3976C9.30926 18.1055 8.00848 15.5883 6.86239 12.9797C6.60926 12.4102 6.79911 12.0867 7.43192 12.0586C8.51473 12.0305 9.56239 12.0305 10.6522 12.0586C11.0952 12.0586 11.3835 12.3117 11.5452 12.7266C12.1147 14.1609 12.8179 15.4969 13.7108 16.7695C13.9358 17.0859 14.189 17.4375 14.5405 17.6625C14.9202 17.9156 15.2085 17.8242 15.4054 17.4094C15.5319 17.1562 15.5671 16.8398 15.5952 16.5445C15.6936 15.5531 15.6936 14.5687 15.5319 13.5844C15.4335 12.9797 15.089 12.5648 14.4843 12.4664C14.1679 12.4031 14.2311 12.2766 14.3577 12.1148C14.6108 11.7984 14.871 11.6016 15.3772 11.6016H19.0546C19.6241 11.7281 19.7507 11.9812 19.8491 12.5578V16.6641C19.8491 16.8891 19.9757 17.557 20.3624 17.7117C20.6788 17.8101 20.9038 17.55 21.0936 17.3601C21.9866 16.4039 22.6265 15.293 23.196 14.1398C23.4491 13.6266 23.6741 13.1203 23.864 12.5789C24.0257 12.1992 24.2788 12.0094 24.6936 12.0094H28.2655C28.364 12.0094 28.4905 12.0094 28.5819 12.0375C29.1866 12.1359 29.3483 12.3891 29.1515 12.9937C28.8632 13.9148 28.2866 14.6812 27.7171 15.4477C27.1124 16.2773 26.4725 17.0719 25.903 17.9016C25.4249 18.668 25.46 19.0476 26.128 19.7156C26.8593 20.4469 27.6608 21.1148 28.3288 21.9445C28.6171 22.2961 28.8983 22.6758 29.1233 23.0906C29.4327 23.6812 29.1515 24.3492 28.61 24.3844Z" fill="white"/>
</svg>
