<svg width="18" height="18" viewBox="0 0 18 18" fill="none" xmlns="http://www.w3.org/2000/svg">
<g clip-path="url(#clip0_2230_4464)">
<path d="M3.1875 6H1.3125C0.58875 6 0 6.58875 0 7.3125V15.9375C0 16.6613 0.58875 17.25 1.3125 17.25H3.1875C3.91125 17.25 4.5 16.6613 4.5 15.9375V7.3125C4.5 6.58875 3.91125 6 3.1875 6Z" fill="white"/>
<path d="M3.1875 6H1.3125C0.58875 6 0 6.58875 0 7.3125V15.9375C0 16.6613 0.58875 17.25 1.3125 17.25H3.1875C3.91125 17.25 4.5 16.6613 4.5 15.9375V7.3125C4.5 6.58875 3.91125 6 3.1875 6Z" fill="black" fill-opacity="0.75"/>
<path d="M15.0007 6.5625H11.4607C11.4607 6.5625 12.0232 5.4375 12.0232 3.5625C12.0232 1.3125 10.3357 0.5625 9.58575 0.5625C8.83575 0.5625 8.46075 0.9375 8.46075 2.8125C8.46075 4.5945 6.735 6.0285 5.625 6.76725V16.0582C6.82575 16.614 9.2295 17.4375 12.9607 17.4375H14.1607C15.6232 17.4375 16.8682 16.3875 17.1157 14.9475L17.9557 10.0725C18.2707 8.235 16.8607 6.5625 15.0007 6.5625Z" fill="#FFED00"/>
</g>
<defs>
<clipPath id="clip0_2230_4464">
<rect width="18" height="18" fill="white"/>
</clipPath>
</defs>
</svg>
