<svg width="32" height="32" viewBox="0 0 32 32" fill="none" xmlns="http://www.w3.org/2000/svg">
<g opacity="0.25" clip-path="url(#clip0_1549_3356)">
<path d="M28.7 4.5625H21.125V3.09375C21.125 1.3875 19.7375 0 18.025 0H13.9688C12.2625 0 10.875 1.3875 10.875 3.1V4.5625H3.3C1.48125 4.5625 0 6.04375 0 7.8625V21.475C0 23.2938 1.48125 24.775 3.3 24.775H8.125H15.125V26.6125H13.4C12.525 26.6125 11.8313 27.4937 11.5063 28.25L11.1875 28.9813C11.0312 29.35 10.55 30.6188 11.1 31.45C11.3313 31.8 11.7063 32.0062 12.125 32.0062H19.875C20.2938 32.0062 20.6687 31.8063 20.9 31.45C21.4438 30.6188 20.9688 29.35 20.8125 28.9813L20.4937 28.25C20.1687 27.4937 19.475 26.6125 18.6 26.6125H16.875V24.775H23.875H28.7C30.5188 24.775 32 23.2938 32 21.475V7.8625C32 6.04375 30.5188 4.5625 28.7 4.5625ZM18.8875 28.9438L19.2062 29.675C19.3062 29.9 19.3563 30.1 19.3875 30.25H12.6187C12.6437 30.0938 12.7 29.9 12.8 29.675L13.1187 28.9438C13.2562 28.6313 13.425 28.4375 13.5188 28.3625H18.4875C18.575 28.4312 18.75 28.6313 18.8875 28.9438ZM19.375 7.3125V8.2875C19.375 9.43125 18.8062 10.4812 17.85 11.1125C17.6063 11.275 17.4562 11.55 17.4562 11.8438V12.9812C17.4562 12.9875 17.4562 12.9875 17.4562 12.9937V13C17.4562 13.025 17.4562 13.05 17.4562 13.075C17.4562 13.1062 17.4562 13.1437 17.4625 13.1812C17.4625 13.2 17.4688 13.225 17.4688 13.2437V13.25C17.475 13.2937 17.475 13.3375 17.4813 13.3813C17.4875 13.4062 17.4875 13.425 17.4937 13.45V13.4625C17.5 13.5 17.5062 13.5375 17.5187 13.575C17.525 13.6 17.5312 13.6313 17.5375 13.6562C17.5438 13.6812 17.55 13.7063 17.5562 13.7375C17.5562 13.7438 17.5625 13.7562 17.5625 13.7625C17.5688 13.7937 17.5812 13.8188 17.5875 13.85C17.6 13.8813 17.6125 13.9187 17.625 13.95C17.6375 13.975 17.6437 14.0063 17.6562 14.0312C17.6562 14.0375 17.6562 14.0375 17.6625 14.0437C17.675 14.0687 17.6875 14.1 17.7 14.1313L17.7062 14.1438C17.7188 14.1687 17.725 14.1938 17.7375 14.2188C17.75 14.25 17.7687 14.275 17.7812 14.3L17.7875 14.3125C17.7875 14.3188 17.7938 14.3187 17.7938 14.325C17.8188 14.3687 17.8438 14.4187 17.875 14.4625C17.875 14.4625 17.875 14.4625 17.875 14.4688L17.8813 14.4812C17.8813 14.4812 17.8813 14.4875 17.8875 14.4875C17.9 14.5063 17.9125 14.525 17.925 14.5437C17.925 14.5437 17.925 14.5437 17.925 14.55C17.9375 14.5688 17.9562 14.5938 17.9688 14.6125L17.9813 14.6313C17.9875 14.6375 17.9937 14.65 18 14.6562C17.975 14.675 17.9562 14.6938 17.9312 14.7063C17.9187 14.7125 17.9125 14.7188 17.9 14.725C17.8562 14.7563 17.8063 14.7875 17.7625 14.8188C17.75 14.825 17.7375 14.8312 17.7313 14.8375C17.6938 14.8625 17.6562 14.8812 17.6187 14.9C17.6062 14.9062 17.5938 14.9125 17.575 14.925C17.5312 14.95 17.4813 14.975 17.4375 14.9937C17.4312 14.9937 17.4312 15 17.425 15C17.375 15.025 17.325 15.0438 17.275 15.0688C17.2625 15.075 17.2438 15.0812 17.2313 15.0875C17.1938 15.1062 17.15 15.1188 17.1125 15.1313C17.1 15.1375 17.0875 15.1438 17.0688 15.1438C17.0188 15.1625 16.9625 15.1813 16.9125 15.1938C16.9062 15.1938 16.8938 15.2 16.8875 15.2C16.8438 15.2125 16.7938 15.225 16.75 15.2375C16.7313 15.2438 16.7188 15.2437 16.7 15.25C16.6562 15.2625 16.6125 15.2687 16.5625 15.275C16.55 15.275 16.5438 15.2812 16.5312 15.2812C16.475 15.2875 16.4187 15.3 16.3625 15.3062C16.35 15.3062 16.3375 15.3062 16.3188 15.3125C16.275 15.3188 16.2313 15.3187 16.1875 15.325C16.1688 15.325 16.1562 15.325 16.1375 15.325C16.0813 15.325 16.025 15.3313 15.9688 15.3313C15.9125 15.3313 15.8562 15.3313 15.8 15.325C15.7812 15.325 15.7688 15.325 15.75 15.325C15.7063 15.325 15.6625 15.3188 15.6187 15.3125C15.6062 15.3125 15.5938 15.3125 15.575 15.3062C15.5188 15.3 15.4625 15.2937 15.4062 15.2812C15.3938 15.2812 15.3875 15.275 15.375 15.275C15.3313 15.2687 15.2875 15.2563 15.2375 15.25C15.2188 15.2437 15.2063 15.2438 15.1875 15.2375C15.1438 15.225 15.0938 15.2125 15.05 15.2C15.0437 15.2 15.0312 15.1938 15.025 15.1938C14.9688 15.1813 14.9187 15.1625 14.8687 15.1438C14.8562 15.1375 14.8438 15.1313 14.825 15.1313C14.7875 15.1188 14.7438 15.1 14.7063 15.0875C14.6938 15.0812 14.675 15.075 14.6625 15.0688C14.6125 15.05 14.5625 15.025 14.5125 15C14.5125 15 14.5063 15 14.5063 14.9937C14.4563 14.9688 14.4125 14.95 14.3687 14.925C14.3562 14.9187 14.3438 14.9125 14.325 14.9C14.2875 14.8812 14.25 14.8562 14.2125 14.8313C14.2 14.825 14.1875 14.8188 14.1812 14.8125C14.1312 14.7812 14.0875 14.75 14.0437 14.7188C14.0375 14.7125 14.025 14.7063 14.0188 14.7C13.9938 14.6812 13.9688 14.6625 13.95 14.65C13.9563 14.6437 13.9625 14.6313 13.9688 14.625L13.9812 14.6062C14 14.5813 14.0188 14.5562 14.0375 14.525C14.05 14.5062 14.0625 14.4875 14.075 14.4625L14.0813 14.4563C14.1125 14.4 14.15 14.3438 14.175 14.2937L14.1812 14.2812C14.1937 14.2563 14.2063 14.2312 14.225 14.2C14.2375 14.175 14.25 14.15 14.2563 14.125L14.2625 14.1062C14.275 14.075 14.2875 14.05 14.3 14.0188C14.3125 13.9938 14.3188 13.9688 14.3313 13.9438L14.3375 13.9375C14.35 13.9062 14.3625 13.875 14.375 13.8375C14.3875 13.8062 14.3937 13.7812 14.4 13.75C14.4125 13.7125 14.4187 13.6813 14.4312 13.6438C14.4375 13.6125 14.4437 13.5875 14.45 13.5562C14.4563 13.525 14.4625 13.4875 14.4688 13.45V13.4438V13.4312C14.475 13.4062 14.475 13.3875 14.4812 13.3625C14.4875 13.325 14.4875 13.2938 14.4937 13.2563V13.25C14.4937 13.2437 14.4937 13.2375 14.4937 13.2375V13.2312C14.4937 13.2125 14.5 13.1875 14.5 13.1687C14.5063 13.1062 14.5063 13.05 14.5063 12.9937V12.9875C14.5063 12.9812 14.5063 12.975 14.5063 12.9688V11.8313C14.5063 11.5375 14.3562 11.2625 14.1125 11.1C13.1562 10.475 12.5875 9.41875 12.5875 8.275V7.39375H12.5938C12.6938 7.4 12.7937 7.4 12.8938 7.4C12.9062 7.4 12.9187 7.4 12.9312 7.4C12.9437 7.4 12.9563 7.4 12.975 7.4C13.0063 7.4 13.0312 7.4 13.0625 7.4C13.1 7.4 13.1375 7.4 13.175 7.4C13.2063 7.4 13.2312 7.4 13.2625 7.4C13.3 7.4 13.3375 7.4 13.3687 7.39375C13.4 7.39375 13.4313 7.39375 13.4563 7.3875C13.4938 7.3875 13.5312 7.38125 13.5625 7.38125C13.5938 7.38125 13.6187 7.375 13.65 7.375C13.6875 7.375 13.725 7.36875 13.7625 7.3625C13.7937 7.3625 13.8188 7.35625 13.85 7.35625C13.8938 7.35 13.9375 7.34375 13.9812 7.34375C14.0125 7.3375 14.0375 7.3375 14.0688 7.33125C14.125 7.325 14.1813 7.31875 14.2375 7.30625C14.2625 7.3 14.2938 7.3 14.3188 7.29375C14.3563 7.2875 14.3937 7.28125 14.4312 7.275C14.4625 7.26875 14.4875 7.2625 14.5188 7.25625C14.5563 7.25 14.5875 7.24375 14.625 7.2375C14.6562 7.23125 14.6812 7.225 14.7125 7.21875C14.75 7.2125 14.7812 7.20625 14.8188 7.19375C14.85 7.1875 14.875 7.18125 14.9062 7.175C14.9438 7.16875 14.975 7.15625 15.0125 7.15C15.0437 7.14375 15.0688 7.1375 15.1 7.13125C15.1375 7.125 15.1687 7.1125 15.2063 7.1C15.2312 7.09375 15.2625 7.0875 15.2875 7.075C15.325 7.0625 15.3625 7.05625 15.4 7.04375C15.425 7.0375 15.45 7.03125 15.475 7.01875C15.5188 7.00625 15.5563 6.99375 15.6 6.98125C15.6188 6.975 15.6438 6.96875 15.6625 6.9625C15.725 6.94375 15.7875 6.91875 15.8438 6.9C16.3312 6.725 16.8062 6.50625 17.2563 6.24375C17.5063 6.50625 17.8438 6.775 18.2687 6.98125C18.3125 7 18.35 7.01875 18.3937 7.0375C18.4062 7.04375 18.4188 7.05 18.4375 7.05625C18.4688 7.06875 18.4937 7.08125 18.525 7.09375C18.5437 7.1 18.5563 7.10625 18.575 7.1125C18.6 7.125 18.625 7.13125 18.6562 7.14375C18.675 7.15 18.6938 7.15625 18.7125 7.1625C18.7375 7.16875 18.7625 7.18125 18.7875 7.1875C18.8062 7.19375 18.825 7.2 18.8438 7.20625C18.8687 7.2125 18.8938 7.21875 18.9188 7.225C18.9375 7.23125 18.9563 7.2375 18.975 7.2375C19 7.24375 19.025 7.25 19.05 7.25625C19.0687 7.2625 19.0875 7.2625 19.1063 7.26875C19.1313 7.275 19.1562 7.28125 19.1812 7.28125C19.2 7.2875 19.2188 7.2875 19.2375 7.29375C19.2625 7.3 19.2875 7.3 19.3125 7.30625C19.3563 7.30625 19.3687 7.30625 19.375 7.3125ZM13.975 1.75H18.0312C18.3937 1.75 18.7312 1.8875 18.9875 2.14375C19.2437 2.4 19.3813 2.7375 19.3813 3.1V5.53125C19.3625 5.525 19.35 5.51875 19.3312 5.51875C19.325 5.51875 19.3125 5.5125 19.3062 5.5125C19.2875 5.50625 19.2687 5.5 19.25 5.49375C19.2437 5.49375 19.2313 5.4875 19.225 5.4875C19.2063 5.48125 19.1875 5.475 19.1688 5.4625C19.1625 5.4625 19.1562 5.45625 19.1437 5.45625C19.1187 5.44375 19.0875 5.43125 19.0625 5.41875C18.7313 5.25625 18.5125 5.03125 18.375 4.84375C18.3563 4.81875 18.3375 4.79375 18.3188 4.76875C18.1625 4.53125 17.9188 4.3625 17.6375 4.30625C17.3563 4.25 17.0625 4.3125 16.8312 4.46875C16.35 4.8 15.825 5.06875 15.2812 5.2625C15.2188 5.28125 15.1625 5.30625 15.1 5.325C15.0813 5.33125 15.0625 5.3375 15.0437 5.34375C15 5.35625 14.9563 5.36875 14.9125 5.38125C14.8938 5.3875 14.8688 5.39375 14.85 5.4C14.8063 5.4125 14.7625 5.425 14.7188 5.4375C14.7 5.44375 14.6813 5.45 14.6625 5.45C14.6 5.4625 14.5375 5.48125 14.475 5.49375C14.4625 5.49375 14.45 5.5 14.4312 5.5C14.3812 5.5125 14.3313 5.51875 14.2812 5.53125C14.2563 5.5375 14.2375 5.5375 14.2125 5.54375C14.1687 5.55 14.125 5.55625 14.0813 5.56875C14.0563 5.575 14.0375 5.575 14.0125 5.58125C13.9625 5.5875 13.9125 5.59375 13.8625 5.6C13.85 5.6 13.8313 5.60625 13.8188 5.60625C13.7563 5.6125 13.6938 5.61875 13.625 5.625C13.6062 5.625 13.5875 5.63125 13.5688 5.63125C13.525 5.6375 13.475 5.6375 13.4312 5.64375C13.4062 5.64375 13.3875 5.64375 13.3625 5.65C13.3188 5.65 13.275 5.65625 13.225 5.65625C13.2063 5.65625 13.1813 5.65625 13.1625 5.65625C13.1 5.65625 13.0437 5.65625 12.9812 5.65625C12.975 5.65625 12.975 5.65625 12.9688 5.65625C12.9062 5.65625 12.8375 5.65625 12.775 5.65625C12.7562 5.65625 12.7312 5.65625 12.7125 5.65625C12.6875 5.65625 12.6562 5.65625 12.6313 5.65V3.1C12.625 2.35625 13.2313 1.75 13.975 1.75ZM1.75 21.475V7.8625C1.75 7.00625 2.44375 6.3125 3.3 6.3125H10.875V6.4375V6.44375V8.28125C10.875 9.85 11.5813 11.3125 12.7937 12.2812V12.9625C12.7937 12.9688 12.7937 12.9688 12.7937 12.975C12.7937 12.9813 12.7937 12.9875 12.7937 12.9937C12.7937 13.0125 12.7937 13.025 12.7937 13.0437L12.7875 13.075C12.7875 13.0813 12.7875 13.0875 12.7875 13.0938C12.7875 13.1 12.7875 13.1125 12.7875 13.1187L12.7812 13.15C12.7812 13.1625 12.775 13.1813 12.775 13.1938C12.775 13.2063 12.7688 13.2125 12.7688 13.225C12.7625 13.2375 12.7625 13.25 12.7563 13.2625C12.75 13.275 12.75 13.2875 12.7437 13.2937C12.7375 13.3062 12.7375 13.3188 12.7312 13.3313V13.3375C12.7312 13.3438 12.725 13.3562 12.7188 13.3625C12.7125 13.3688 12.7125 13.3812 12.7063 13.3875L12.6687 13.4625C12.6562 13.4812 12.6438 13.5062 12.6313 13.525L12.6125 13.5562C12.6062 13.5625 12.6063 13.5688 12.6 13.5688L12.5875 13.5813L12.5688 13.6062C12.5625 13.6187 12.55 13.625 12.5437 13.6375L12.525 13.6625C12.5125 13.675 12.5062 13.6813 12.4937 13.6938C12.4875 13.7 12.4813 13.7062 12.475 13.7125C12.4625 13.725 12.4563 13.7312 12.4438 13.7437C12.4375 13.75 12.4312 13.7562 12.4187 13.7625C12.4062 13.775 12.3938 13.7812 12.3875 13.7875L12.3625 13.8062C12.35 13.8125 12.3438 13.8187 12.3313 13.825L12.3188 13.8313L12.3062 13.8375L12.3 13.8438C12.2875 13.85 12.275 13.8625 12.2625 13.8687C12.2188 13.8937 12.1687 13.9187 12.125 13.9375L10.25 14.675C8.43125 15.3875 7.25625 17.1187 7.25625 19.0688V22.9937H3.3C2.44375 23.025 1.75 22.325 1.75 21.475ZM9 23.025V19.1C9 17.8687 9.7375 16.7812 10.8875 16.3312L12.4875 15.7C12.4938 15.7063 12.4937 15.7062 12.5 15.7125C12.55 15.7625 12.6062 15.8063 12.6562 15.85C12.6687 15.8563 12.675 15.8687 12.6875 15.875C12.7437 15.9187 12.8 15.9688 12.8562 16.0125C12.8625 16.0188 12.8625 16.0187 12.8687 16.025C12.925 16.0688 12.9813 16.1062 13.0375 16.15C13.0438 16.1562 13.0562 16.1625 13.0625 16.1688C13.1187 16.2063 13.175 16.25 13.2375 16.2875C13.25 16.2938 13.2625 16.3 13.275 16.3125C13.3312 16.35 13.3938 16.3875 13.4563 16.4188C13.4625 16.425 13.475 16.4312 13.4812 16.4312C13.5437 16.4625 13.6 16.5 13.6625 16.5312C13.6688 16.5312 13.675 16.5375 13.6812 16.5375C13.7437 16.5688 13.8062 16.6 13.875 16.6313C13.8875 16.6375 13.9 16.6437 13.9125 16.65C13.975 16.6812 14.0375 16.7063 14.1062 16.7313C14.1187 16.7375 14.1313 16.7375 14.1438 16.7437C14.2125 16.7687 14.275 16.7938 14.3438 16.8188H14.35C14.4188 16.8438 14.4812 16.8625 14.55 16.8813C14.5625 16.8875 14.575 16.8875 14.5813 16.8937C14.65 16.9125 14.7188 16.9313 14.7812 16.95C14.7937 16.9563 14.8063 16.9562 14.8188 16.9625C14.8875 16.9812 14.9562 16.9937 15.025 17.0063C15.0312 17.0063 15.0437 17.0125 15.05 17.0125C15.1188 17.025 15.1875 17.0375 15.2563 17.0438C15.2625 17.0438 15.2688 17.0437 15.2812 17.05C15.35 17.0625 15.425 17.0688 15.4937 17.075C15.5062 17.075 15.5188 17.075 15.5375 17.0812C15.6063 17.0875 15.6812 17.0938 15.75 17.0938C15.7625 17.0938 15.775 17.0938 15.7875 17.0938C15.8625 17.1 15.9375 17.1 16.0125 17.1C16.0875 17.1 16.1625 17.1 16.2375 17.0938C16.25 17.0938 16.2625 17.0938 16.275 17.0938C16.3438 17.0875 16.4187 17.0875 16.4875 17.0812C16.5 17.0812 16.5125 17.0813 16.5312 17.075C16.6 17.0688 16.675 17.0625 16.7437 17.05C16.75 17.05 16.7563 17.05 16.7625 17.0438C16.8313 17.0312 16.9 17.025 16.9688 17.0125C16.975 17.0125 16.9875 17.0063 16.9937 17.0063C17.0625 16.9937 17.1313 16.975 17.2 16.9625C17.2125 16.9562 17.225 16.9563 17.2375 16.95C17.3062 16.9313 17.375 16.9125 17.4375 16.8937C17.45 16.8937 17.4562 16.8875 17.4688 16.8813C17.5375 16.8625 17.6063 16.8375 17.6688 16.8188C17.675 16.8188 17.675 16.8188 17.6812 16.8125C17.75 16.7875 17.8188 16.7625 17.8813 16.7375C17.8938 16.7312 17.9062 16.7313 17.9188 16.725C17.9813 16.7 18.05 16.675 18.1125 16.6437C18.125 16.6375 18.1375 16.6313 18.15 16.625C18.2125 16.5938 18.2812 16.5625 18.3438 16.5312C18.35 16.5312 18.35 16.525 18.3563 16.525C18.4188 16.4937 18.4813 16.4625 18.5375 16.425C18.5438 16.4187 18.5562 16.4125 18.5625 16.4125C18.625 16.375 18.6812 16.3438 18.7437 16.3062C18.7563 16.3 18.7687 16.2938 18.7812 16.2812C18.8375 16.2437 18.9 16.2063 18.9562 16.1625C18.9625 16.1562 18.975 16.15 18.9813 16.1437C19.0375 16.1062 19.0938 16.0625 19.15 16.0187C19.1562 16.0125 19.1625 16.0125 19.1625 16.0063C19.2188 15.9625 19.275 15.9187 19.3312 15.8687C19.3438 15.8625 19.35 15.85 19.3625 15.8438C19.4125 15.8 19.4688 15.75 19.5187 15.7063C19.525 15.7 19.525 15.7 19.5312 15.6938L21.1313 16.325C22.275 16.775 23.0187 17.8625 23.0187 19.0938V23.0187H9V23.025ZM30.25 21.475C30.25 22.3313 29.5563 23.025 28.7 23.025H24.75V19.1C24.75 17.1438 23.575 15.4187 21.7563 14.7063L19.8813 13.9688C19.8313 13.95 19.7875 13.925 19.7375 13.9C19.725 13.8937 19.7188 13.8875 19.7062 13.8813L19.7 13.875L19.675 13.8562C19.6687 13.85 19.6562 13.8438 19.65 13.8375L19.6437 13.8313L19.6187 13.8125C19.6062 13.8062 19.5938 13.7938 19.5875 13.7875C19.5812 13.7812 19.5688 13.775 19.5625 13.7688C19.55 13.7563 19.5438 13.75 19.5312 13.7375C19.525 13.7312 19.5188 13.725 19.5063 13.7125C19.4937 13.7 19.4875 13.6937 19.475 13.6812L19.45 13.65C19.4438 13.6437 19.4375 13.6313 19.4312 13.625L19.3687 13.5312C19.3562 13.5125 19.3438 13.4938 19.3375 13.475L19.3062 13.4062C19.3 13.3938 19.2938 13.3813 19.2938 13.375C19.2875 13.3687 19.2875 13.3563 19.2812 13.35V13.3438C19.275 13.3313 19.275 13.3187 19.2687 13.3062C19.2625 13.2937 19.2625 13.2875 19.2563 13.275C19.25 13.2625 19.25 13.25 19.2437 13.2312C19.2437 13.2188 19.2375 13.2125 19.2375 13.2C19.2312 13.1875 19.2313 13.1687 19.2313 13.1562L19.225 13.125C19.225 13.1062 19.2188 13.0938 19.2188 13.075L19.2125 13.0437C19.2125 13.0188 19.2125 12.9937 19.2125 12.9688V12.9625V12.2812C20.4187 11.3125 21.1313 9.85 21.1313 8.28125V6.44375V6.4375V6.3125H28.7062C29.5625 6.3125 30.2563 7.00625 30.2563 7.8625V21.475H30.25Z" fill="black"/>
</g>
<defs>
<clipPath id="clip0_1549_3356">
<rect width="32" height="32" fill="white"/>
</clipPath>
</defs>
</svg>
