<svg width="28" height="28" viewBox="0 0 28 28" fill="none" xmlns="http://www.w3.org/2000/svg">
<g opacity="0.25">
<path d="M20.732 8.56406C20.7594 8.52031 20.7867 8.47109 20.8141 8.42734C21.3172 7.56875 21.6672 6.75938 21.8641 6.01016C22.7664 5.63281 23.4008 4.74141 23.4008 3.70234V2.49922C23.4008 1.12109 22.2797 0 20.9016 0H7.09844C5.72031 0 4.59922 1.12109 4.59922 2.49922V3.69687C4.59922 4.73594 5.23359 5.62734 6.13594 6.00469C6.33281 6.75391 6.68281 7.56328 7.18594 8.42188C7.21328 8.46562 7.24062 8.51484 7.26797 8.55859C8.52578 10.6531 10.4398 12.7039 11.7523 13.9945C11.1289 14.607 10.3578 15.4055 9.57578 16.3133C7.71094 18.4734 6.55703 20.382 6.13047 21.9898C5.22812 22.3672 4.59375 23.2586 4.59375 24.2977V25.4953C4.59375 26.8734 5.71484 27.9945 7.09297 27.9945H20.9016C22.2797 27.9945 23.4008 26.8734 23.4008 25.4953V24.2977C23.4008 23.2586 22.7664 22.3672 21.8641 21.9898C21.443 20.3766 20.2836 18.4734 18.4187 16.3133C17.6422 15.4109 16.8656 14.6125 16.2422 13.9945C17.5602 12.7094 19.4742 10.6586 20.732 8.56406ZM19.693 7.29531H8.30703C8.09922 6.9125 7.92969 6.54609 7.80391 6.19609H20.2016C20.0703 6.54609 19.9008 6.9125 19.693 7.29531ZM10.1172 9.94219C9.82188 9.58125 9.5375 9.20391 9.26953 8.82656H18.725C18.457 9.20391 18.1727 9.58125 17.8773 9.94219C16.6195 11.4297 14.7766 12.6383 13.9945 13.1141C13.218 12.6328 11.3805 11.4242 10.1172 9.94219ZM6.13047 2.49922C6.13047 1.96328 6.5625 1.53125 7.09844 1.53125H20.907C21.443 1.53125 21.875 1.96328 21.875 2.49922V3.69687C21.875 4.23281 21.443 4.66484 20.907 4.66484H7.09844C6.5625 4.66484 6.13047 4.23281 6.13047 3.69687V2.49922ZM21.8695 25.5008C21.8695 26.0367 21.4375 26.4688 20.9016 26.4688H7.09844C6.5625 26.4688 6.13047 26.0367 6.13047 25.5008V24.3031C6.13047 23.7672 6.5625 23.3352 7.09844 23.3352H20.907C21.443 23.3352 21.875 23.7672 21.875 24.3031V25.5008H21.8695ZM8.55312 21.8039C9.08906 21.3555 9.81641 20.8633 10.7406 20.3273C12.3758 19.3758 13.9781 18.6703 14 18.6648H14.0055C14.0711 18.6922 15.6625 19.4031 17.2594 20.3273C18.1836 20.8633 18.9164 21.3555 19.4469 21.8039H8.55312ZM17.2594 17.3195C17.9594 18.1344 18.55 18.9 19.0313 19.6164C18.725 19.4195 18.3914 19.2172 18.025 19.0039C16.3844 18.0523 14.7984 17.3414 14.6234 17.2648C14.2297 17.0898 13.7703 17.0898 13.3766 17.2648C13.3602 17.2703 11.6813 18.0141 9.96953 19.0039C9.60859 19.2117 9.275 19.4195 8.96328 19.6164C9.43906 18.9 10.0297 18.1344 10.7352 17.3195C11.7359 16.1547 12.7258 15.1758 13.382 14.5578C13.3875 14.5523 13.393 14.5469 13.3984 14.5414C13.5297 14.618 13.6117 14.6617 13.6281 14.6727C13.743 14.7383 13.8688 14.7711 14 14.7711C14.1258 14.7711 14.257 14.7383 14.3719 14.6727C14.3883 14.6617 14.4703 14.618 14.6016 14.5414C14.607 14.5469 14.6125 14.5523 14.618 14.5578C15.2742 15.1758 16.2641 16.1602 17.2594 17.3195Z" fill="black"/>
</g>
</svg>
