<svg width="32" height="32" viewBox="0 0 32 32" fill="none" xmlns="http://www.w3.org/2000/svg">
<g opacity="0.25">
<path d="M26.4309 32H5.56841C4.51216 32 3.64966 31.1375 3.64966 30.0812V1.91875C3.64966 0.8625 4.51216 0 5.56841 0H26.4309C27.4872 0 28.3497 0.8625 28.3497 1.91875V30.0812C28.3497 31.1375 27.4872 32 26.4309 32ZM5.56841 1.75C5.47466 1.75 5.39966 1.825 5.39966 1.91875V30.0812C5.39966 30.175 5.47466 30.25 5.56841 30.25H26.4309C26.5247 30.25 26.5997 30.175 26.5997 30.0812V1.91875C26.5997 1.825 26.5247 1.75 26.4309 1.75H5.56841ZM22.7809 6.9625H9.21841C8.73716 6.9625 8.34341 6.56875 8.34341 6.0875V4.00625C8.34341 3.525 8.73716 3.13125 9.21841 3.13125H22.7809C23.2622 3.13125 23.6559 3.525 23.6559 4.00625V6.09375C23.6559 6.575 23.2622 6.9625 22.7809 6.9625ZM10.0934 5.2125H21.9059V4.875H10.0934V5.2125ZM22.0872 8.7C22.0872 8.21875 21.6934 7.825 21.2122 7.825H10.7872C10.3059 7.825 9.91216 8.21875 9.91216 8.7C9.91216 9.18125 10.3059 9.575 10.7872 9.575H21.2184C21.6997 9.575 22.0872 9.18125 22.0872 8.7ZM25.2184 12.35C25.2184 11.8688 24.8247 11.475 24.3434 11.475H12.8684C12.3872 11.475 11.9934 11.8688 11.9934 12.35C11.9934 12.8313 12.3872 13.225 12.8684 13.225H24.3434C24.8247 13.225 25.2184 12.8313 25.2184 12.35ZM19.4809 15.4812C19.4809 15 19.0872 14.6062 18.6059 14.6062H8.17466C7.69341 14.6062 7.29966 15 7.29966 15.4812C7.29966 15.9625 7.69341 16.3563 8.17466 16.3563H18.6059C19.0934 16.3563 19.4809 15.9625 19.4809 15.4812ZM25.2184 15.4812C25.2184 15 24.8247 14.6062 24.3434 14.6062H20.6934C20.2122 14.6062 19.8184 15 19.8184 15.4812C19.8184 15.9625 20.2122 16.3563 20.6934 16.3563H24.3434C24.8247 16.3563 25.2184 15.9625 25.2184 15.4812ZM14.2684 18.0875C14.2684 17.6062 13.8747 17.2125 13.3934 17.2125H8.18091C7.69966 17.2125 7.30591 17.6062 7.30591 18.0875C7.30591 18.5687 7.69966 18.9625 8.18091 18.9625H13.3934C13.8747 18.9625 14.2684 18.5687 14.2684 18.0875ZM20.0059 18.0875C20.0059 17.6062 19.6122 17.2125 19.1309 17.2125H15.4809C14.9997 17.2125 14.6059 17.6062 14.6059 18.0875C14.6059 18.5687 14.9997 18.9625 15.4809 18.9625H19.1309C19.6122 18.9625 20.0059 18.5687 20.0059 18.0875ZM10.5247 29.9125C7.88716 29.9125 5.73716 27.7625 5.73716 25.125C5.73716 22.4875 7.88716 20.3375 10.5247 20.3375C13.1622 20.3375 15.3122 22.4875 15.3122 25.125C15.3122 27.7687 13.1622 29.9125 10.5247 29.9125ZM10.5247 22.0875C8.84966 22.0875 7.48716 23.45 7.48716 25.125C7.48716 26.8 8.84966 28.1625 10.5247 28.1625C12.1997 28.1625 13.5622 26.8 13.5622 25.125C13.5622 23.45 12.1997 22.0875 10.5247 22.0875ZM18.3934 27.3687L18.6497 26.5938C18.9122 26.8625 19.2497 27.0625 19.6372 27.1437C20.0559 27.2312 20.4747 27.175 20.8434 27.0063C21.1434 27.4313 21.6059 27.7312 22.1372 27.8062C22.8122 27.9062 23.4934 27.6375 23.9184 27.1063C23.9184 27.1063 23.9184 27.1 23.9247 27.1L25.4497 25.1625C25.7497 24.7813 25.6809 24.2312 25.3059 23.9312C24.9247 23.6312 24.3747 23.7 24.0747 24.075L22.5559 26.0063C22.5184 26.05 22.4622 26.075 22.3997 26.0688C22.3434 26.0625 22.2934 26.0188 22.2684 25.9688L21.9434 25.15C21.8184 24.8437 21.5372 24.625 21.2059 24.6C20.8747 24.575 20.5559 24.7312 20.3809 25.0187L20.1872 25.3375C20.1872 25.3437 20.1809 25.3438 20.1809 25.35C20.1434 25.4125 20.0747 25.4437 19.9997 25.4312C19.9309 25.4187 19.8809 25.3625 19.8684 25.2938L19.6934 23.2C19.6559 22.7875 19.3372 22.45 18.9247 22.4062C18.5122 22.3562 18.1184 22.6062 17.9934 23L16.7372 26.825C16.5872 27.2813 16.8372 27.7812 17.2934 27.9312C17.3872 27.9625 17.4747 27.975 17.5684 27.975C17.9309 27.975 18.2747 27.7375 18.3934 27.3687ZM11.3747 26.2875L12.5372 25.125C12.8809 24.7812 12.8747 24.2313 12.5372 23.8875C12.1934 23.5438 11.6434 23.55 11.2997 23.8875L10.2934 24.9L10.0559 24.6625C9.71216 24.3188 9.16216 24.3188 8.81841 24.6625C8.47466 25.0063 8.47466 25.5562 8.81841 25.9L9.21216 26.2938C9.49966 26.5813 9.88716 26.7375 10.2872 26.7375C10.2872 26.7375 10.2934 26.7375 10.2997 26.7375C10.6934 26.7375 11.0872 26.575 11.3747 26.2875Z" fill="black"/>
</g>
</svg>
