<svg width="28" height="28" viewBox="0 0 28 28" fill="none" xmlns="http://www.w3.org/2000/svg">
<g opacity="0.25" clip-path="url(#clip0_2225_3643)">
<path d="M26.2332 25.3914C26.2004 24.9484 26.0035 24.3031 25.2434 23.7289L22.1262 21.257L22.4434 20.9398C22.5746 20.9727 22.7059 20.9945 22.848 20.9945C23.3238 20.9945 23.7996 20.7867 24.1605 20.4258L24.166 20.4203C24.8496 19.7312 24.9098 18.6703 24.3027 18.0633L21.9621 15.7172V8.89766C21.9621 8.34531 21.7488 7.82031 21.3551 7.43203C19.7691 5.84609 18.1887 4.26016 16.6027 2.67422L14.5465 0.6125C14.1637 0.21875 13.6387 0 13.0809 0H4.42383C2.82695 0 1.52539 1.30156 1.52539 2.89844V22.4984C1.52539 24.0953 2.82695 25.3969 4.42383 25.3969H15.673L16.3293 26.0531C16.6137 26.332 16.9855 26.4742 17.3793 26.4742C17.8387 26.4742 18.3199 26.2828 18.6918 25.9109C18.8449 25.7578 18.9707 25.5883 19.0637 25.4023H19.0746C19.5559 25.4023 20.0207 25.2875 20.4363 25.0633L21.973 27.0102C22.5473 27.7703 23.1926 27.9672 23.6356 28C23.6848 28.0055 23.7285 28.0055 23.7777 28.0055C24.3738 28.0055 24.9699 27.732 25.473 27.2289C26.0035 26.682 26.277 26.0312 26.2332 25.3914ZM15.3613 20.0703L18.3418 17.0953L21.2293 19.9937L20.6715 20.5516C20.666 20.557 20.666 20.557 20.6605 20.5625L20.4363 20.7867L20.4309 20.7922L18.2543 22.9633L15.3613 20.0703ZM23.0777 19.343C23.0777 19.3484 23.0723 19.3484 23.0777 19.343C22.9848 19.4305 22.8973 19.4578 22.859 19.4633L22.8535 19.4578L18.8941 15.482L18.8887 15.4766C18.8887 15.4766 18.8832 15.4766 18.8832 15.4711L18.8668 15.4547C18.8668 15.4109 18.8941 15.318 18.9871 15.225C18.9871 15.225 18.9871 15.225 18.9926 15.2195C19.0801 15.132 19.1676 15.1047 19.2113 15.1047L20.666 16.5648L20.6715 16.5703L23.2035 19.1133C23.1926 19.157 23.1707 19.25 23.0777 19.343ZM15.5254 3.75156C16.7996 5.03125 18.0793 6.31094 19.3535 7.59063H15.2191C14.7652 7.59063 14.3934 7.21875 14.3934 6.75938V2.61406L15.5254 3.75156ZM4.42383 23.8602C3.66914 23.8602 3.05664 23.2477 3.05664 22.493V2.89844C3.05664 2.14375 3.66914 1.53125 4.42383 1.53125H12.8621V6.75938C12.8621 8.06094 13.9176 9.12187 15.2191 9.12187H20.4363V14.1805L20.2613 14.0055C19.9879 13.732 19.616 13.5789 19.2113 13.5789C18.7355 13.5789 18.2598 13.7867 17.8988 14.1477L17.8934 14.1531C17.4121 14.6453 17.2371 15.3125 17.3957 15.8812L14.1473 19.1242C13.5785 18.9711 12.9059 19.1461 12.4191 19.6328C12.0582 19.9937 11.8504 20.4695 11.8504 20.9453C11.8504 21.35 12.0035 21.7273 12.277 21.9953L14.1418 23.8602H4.42383ZM17.609 24.8172C17.516 24.9102 17.423 24.932 17.3848 24.9375L16.5316 24.0898L16.5262 24.0844L13.3762 20.9398C13.3762 20.8961 13.4035 20.8086 13.4965 20.7156C13.5895 20.6227 13.6824 20.6008 13.7207 20.5953L13.7316 20.6062C13.7316 20.6062 13.7316 20.6117 13.7371 20.6117C13.7371 20.6117 13.7426 20.6117 13.7426 20.6172L17.7129 24.582L17.7238 24.593C17.7238 24.6367 17.6965 24.7297 17.609 24.8172ZM24.3793 26.1461C24.1551 26.3703 23.9309 26.4852 23.734 26.4688C23.5043 26.4523 23.3074 26.25 23.1816 26.0805C23.1762 26.075 23.1762 26.0695 23.1707 26.0641L20.5895 22.7883L21.0324 22.3453L24.2973 24.932C24.3027 24.9375 24.3082 24.943 24.3137 24.943C24.4832 25.0688 24.6856 25.2656 24.702 25.4953C24.7184 25.6922 24.6035 25.9219 24.3793 26.1461ZM4.1832 8.35625C4.1832 7.93516 4.52773 7.59063 4.94883 7.59063H11.0191C11.4402 7.59063 11.7848 7.93516 11.7848 8.35625C11.7848 8.77734 11.4402 9.12187 11.0191 9.12187H4.94883C4.52773 9.12187 4.1832 8.77734 4.1832 8.35625ZM4.0793 11.55C4.0793 11.1289 4.42383 10.7844 4.84492 10.7844H17.5762C17.9973 10.7844 18.3418 11.1289 18.3418 11.55C18.3418 11.9711 17.9973 12.3156 17.5762 12.3156H4.84492C4.42383 12.3156 4.0793 11.9766 4.0793 11.55ZM4.0793 14.7492C4.0793 14.3281 4.42383 13.9836 4.84492 13.9836H14.9129C15.334 13.9836 15.6785 14.3281 15.6785 14.7492C15.6785 15.1703 15.334 15.5148 14.9129 15.5148H4.84492C4.42383 15.5148 4.0793 15.1703 4.0793 14.7492ZM12.3371 18.7086H4.94883C4.52773 18.7086 4.1832 18.3641 4.1832 17.943C4.1832 17.5219 4.52773 17.1773 4.94883 17.1773H12.3371C12.7582 17.1773 13.1027 17.5219 13.1027 17.943C13.1027 18.3641 12.7637 18.7086 12.3371 18.7086Z" fill="black"/>
</g>
<defs>
<clipPath id="clip0_2225_3643">
<rect width="28" height="28" fill="white"/>
</clipPath>
</defs>
</svg>
