<svg width="36" height="36" viewBox="0 0 36 36" fill="none" xmlns="http://www.w3.org/2000/svg">
<g opacity="0.4">
<path d="M17 22L21 18L17 14" stroke="white" stroke-width="1.5" stroke-linecap="round"/>
<path d="M18 34.5C8.8873 34.5 1.5 27.1127 1.5 18H-1.5C-1.5 28.7696 7.23045 37.5 18 37.5V34.5ZM34.5 18C34.5 27.1127 27.1127 34.5 18 34.5V37.5C28.7696 37.5 37.5 28.7696 37.5 18H34.5ZM18 1.5C27.1127 1.5 34.5 8.8873 34.5 18H37.5C37.5 7.23045 28.7696 -1.5 18 -1.5V1.5ZM18 -1.5C7.23045 -1.5 -1.5 7.23045 -1.5 18H1.5C1.5 8.8873 8.8873 1.5 18 1.5V-1.5Z" fill="white"/>
</g>
</svg>
