<svg width="24" height="24" viewBox="0 0 24 24" fill="none" xmlns="http://www.w3.org/2000/svg">
<path d="M0 12C0 5.37258 5.37258 0 12 0C18.6274 0 24 5.37258 24 12C24 18.6274 18.6274 24 12 24C5.37258 24 0 18.6274 0 12Z" fill="#2196F3"/>
<path d="M18.0815 9.457L11.5815 15.957C11.3865 16.152 11.1305 16.25 10.8745 16.25C10.6185 16.25 10.3625 16.152 10.1675 15.957L6.91752 12.707C6.52652 12.316 6.52652 11.684 6.91752 11.293C7.30852 10.902 7.94052 10.902 8.33152 11.293L10.8745 13.836L16.6675 8.04301C17.0585 7.65201 17.6905 7.65201 18.0815 8.04301C18.4725 8.43401 18.4725 9.066 18.0815 9.457Z" fill="#FAFAFA"/>
</svg>
