<svg width="28" height="28" viewBox="0 0 28 28" fill="none" xmlns="http://www.w3.org/2000/svg">
<path d="M0 14C0 6.26801 6.26801 0 14 0C21.732 0 28 6.26801 28 14C28 21.732 21.732 28 14 28C6.26801 28 0 21.732 0 14Z" fill="#2196F3"/>
<path d="M21.0951 11.0332L13.5117 18.6165C13.2842 18.844 12.9856 18.9583 12.6869 18.9583C12.3882 18.9583 12.0896 18.844 11.8621 18.6165L8.0704 14.8248C7.61423 14.3687 7.61423 13.6313 8.0704 13.1752C8.52656 12.719 9.2639 12.719 9.72006 13.1752L12.6869 16.142L19.4454 9.38351C19.9016 8.92734 20.6389 8.92734 21.0951 9.38351C21.5512 9.83967 21.5512 10.577 21.0951 11.0332Z" fill="#FAFAFA"/>
</svg>
