<svg width="20" height="20" viewBox="0 0 20 20" fill="none" xmlns="http://www.w3.org/2000/svg">
<g clip-path="url(#clip0_2225_3860)">
<path d="M19.7604 16.2652L11.6378 1.84586C10.9452 0.586555 9.05615 0.586555 8.36349 1.84586L0.240854 16.2652C-0.451757 17.5245 0.429768 19.0987 1.87799 19.0987H18.0604C19.5715 19.0357 20.4531 17.5245 19.7604 16.2652Z" fill="#E24C4B"/>
<path d="M10.0001 2.7903L18.1228 17.2096H1.87744L10.0001 2.7903Z" fill="white"/>
<path d="M8.6786 9.40182L9.18235 12.739C9.2453 13.1168 9.56013 13.4317 10.0009 13.4317C10.3787 13.4317 10.7565 13.1168 10.8195 12.739L11.3232 9.40182C11.4491 8.58325 10.8195 7.89064 10.0009 7.89064C9.1823 7.8906 8.6156 8.58325 8.6786 9.40182Z" fill="#3F4448"/>
<path d="M10.001 15.6355C10.4183 15.6355 10.7566 15.2972 10.7566 14.8799C10.7566 14.4626 10.4183 14.1243 10.001 14.1243C9.58366 14.1243 9.24536 14.4626 9.24536 14.8799C9.24536 15.2972 9.58366 15.6355 10.001 15.6355Z" fill="#3F4448"/>
</g>
<defs>
<clipPath id="clip0_2225_3860">
<rect width="20" height="20" fill="white"/>
</clipPath>
</defs>
</svg>
