<svg width="146" height="26" viewBox="0 0 146 26" fill="none" xmlns="http://www.w3.org/2000/svg">
<path fill-rule="evenodd" clip-rule="evenodd" d="M9.95369 0.20459H10.8481L17.9701 18.3871C18.2682 19.117 18.8313 19.482 19.7257 19.482H20.3551V20.4774H12.4381V19.482H13.0675C13.8956 19.482 14.4588 19.3825 14.8231 19.2166C15.055 19.0839 15.1875 18.8848 15.1875 18.6525C15.1875 18.4866 15.1544 18.3207 15.0881 18.1548L13.4319 13.9078H5.58113L4.65361 16.3299C4.42173 16.9604 4.28923 17.4912 4.28923 17.8562C4.28923 18.2875 4.48799 18.6525 4.91862 18.9843C5.31612 19.2829 5.91238 19.4488 6.70739 19.4488H7.3699V20.4442H0.181671V19.4488C0.943557 19.4488 1.57294 19.2829 2.00357 18.9511C2.4342 18.6193 2.86483 17.9889 3.22921 17.0267L9.95369 0.20459ZM9.55618 4.02026L6.01176 12.8792H13.0344L9.55618 4.02026ZM0.380424 22.9991H20.2226V24.2599H0.380424V22.9991ZM20.852 20.4774V19.482H22.177C22.9389 19.482 23.3033 19.0839 23.3033 18.3207V9.76035C23.3033 9.1963 22.972 8.89768 22.3426 8.89768H20.9182V7.90229H27.974C29.2658 7.90229 30.2265 7.96865 30.889 8.13454C31.5184 8.30044 32.0815 8.63224 32.5121 9.16312C32.9428 9.66081 33.1747 10.2912 33.1747 11.0212C33.1747 11.917 32.8103 12.647 32.0815 13.1447C31.3528 13.6756 30.5577 13.941 29.6634 14.0074C32.3465 14.3723 33.7047 15.4673 33.7047 17.259C33.7047 19.4157 31.949 20.5106 28.4708 20.5106H20.852V20.4774ZM25.5889 13.5428H27.4439C29.6302 13.5428 30.7234 12.7797 30.7234 11.2866C30.7234 9.72717 29.7296 8.93086 27.7421 8.93086H26.9471C26.0196 8.93086 25.5889 9.29584 25.5889 10.059V13.5428ZM25.5889 14.5382V18.3539C25.5889 18.7521 25.6552 19.0507 25.8539 19.2498C26.0196 19.4157 26.3177 19.5152 26.7483 19.5152H27.8415C29.2327 19.5152 30.1602 19.3161 30.5577 18.8516C30.9552 18.4203 31.154 17.8562 31.154 17.1594C31.154 15.4009 30.0609 14.5382 27.9077 14.5382H25.5889ZM20.2226 22.9991V24.2599H34.9634V22.9991H20.2226ZM36.2885 12.3815H35.2947L35.5928 7.90229H47.7167L48.0149 12.3815H47.0211C46.723 10.8553 46.3586 9.89307 45.8617 9.49491C45.398 9.09676 44.8017 8.89768 44.1061 8.89768H42.6817V18.5862C42.6817 19.1834 43.0129 19.482 43.6754 19.482H45.0998V20.4774H37.9447V19.482H39.2697C40.0316 19.482 40.4291 19.117 40.4291 18.3539V8.89768H39.1704C38.3754 8.89768 37.746 9.12994 37.3153 9.59445C36.8847 10.059 36.5535 10.988 36.2885 12.3815ZM34.9634 22.9991H48.3461V24.2599H34.9634V22.9991ZM55.17 7.50413C56.8594 7.50413 58.2838 8.10137 59.4432 9.32901C60.6026 10.5567 61.1657 12.1493 61.1657 14.1733C61.1657 15.5668 60.9007 16.7281 60.4038 17.6903C59.9069 18.6525 59.145 19.4157 58.2175 19.9797C57.2569 20.5438 56.23 20.8424 55.1369 20.8424C53.5137 20.8424 52.1224 20.212 50.9962 18.9843C49.8699 17.7567 49.3068 16.1309 49.3068 14.1733C49.3068 12.1825 49.8699 10.5898 50.9962 9.36219C52.1224 8.13454 53.5137 7.50413 55.17 7.50413ZM55.17 8.46634C54.1762 8.46634 53.3481 8.93086 52.6856 9.82671C52.0562 10.7226 51.7249 12.1825 51.7249 14.1401C51.7249 16.1309 52.0562 17.5908 52.6856 18.5198C53.315 19.4488 54.1431 19.9133 55.17 19.9133C56.23 19.9133 57.0581 19.4488 57.7206 18.5198C58.3832 17.5908 58.6813 16.0977 58.6813 14.0074C58.6813 12.0498 58.35 10.6562 57.7206 9.79353C57.0913 8.89768 56.23 8.46634 55.17 8.46634ZM48.3461 22.9991V24.2599H62.0932V22.9991H48.3461ZM67.4595 13.3106H69.8446C70.1758 11.3198 70.9046 9.85989 71.9646 8.89768C73.0577 7.96865 74.3165 7.50413 75.7078 7.50413C77.3309 7.50413 78.7553 8.10136 79.9147 9.29583C81.1072 10.4903 81.7035 12.1161 81.7035 14.2064C81.7035 16.3299 81.1072 17.9557 79.8816 19.117C78.656 20.2783 77.2647 20.8424 75.7078 20.8424C74.2171 20.8424 72.9252 20.3447 71.8321 19.3161C70.7058 18.3207 70.0433 16.6949 69.8114 14.4387H67.4264V18.5198C67.4264 19.117 67.7577 19.4157 68.4202 19.4157H69.8114V20.411H62.6895V19.4157H64.0145C64.7764 19.4157 65.1408 19.0507 65.1408 18.2875V9.79353C65.1408 9.19629 64.8095 8.89768 64.147 8.89768H62.6895V7.90229H69.8777V8.89768H68.5527C67.7908 8.89768 67.4264 9.26266 67.4264 10.0258V13.3106H67.4595ZM79.2522 13.9742C79.2522 11.917 78.921 10.4903 78.2253 9.66081C77.5628 8.8645 76.7015 8.43316 75.7409 8.43316C74.6478 8.43316 73.7865 8.93086 73.1902 9.92625C72.594 10.9216 72.2959 12.3152 72.2959 14.1069C72.2959 16.0313 72.594 17.458 73.2234 18.4203C73.8528 19.3825 74.6809 19.8802 75.7409 19.8802C78.0597 19.9133 79.2522 17.9226 79.2522 13.9742ZM62.0932 22.9991H82.631V24.2599H62.0932V22.9991ZM87.5005 7.67003C87.6992 8.59906 87.8317 9.52809 87.8648 10.3908C88.4942 9.39537 89.1236 8.6986 89.8192 8.30044C90.5149 7.90229 91.2436 7.67003 92.0386 7.67003C92.8999 7.67003 93.7281 7.93547 94.4899 8.46634C95.285 8.99722 95.9143 9.76035 96.4112 10.7889C96.9081 11.8175 97.14 12.9456 97.14 14.2396C97.14 16.2968 96.5437 17.9557 95.3512 19.2498C94.3574 20.3115 93.1649 20.8756 91.7736 20.8756C90.9786 20.8756 90.283 20.6765 89.6536 20.2783C89.0242 19.8802 88.4611 19.2829 87.9642 18.4866V23.5299C87.9642 23.9281 88.0636 24.1935 88.2623 24.3594C88.4942 24.5585 88.8255 24.6912 89.2561 24.6912H90.1836V25.6534H83.4923V24.6912H84.4198C84.8504 24.6912 85.1817 24.5917 85.3804 24.4258C85.6123 24.2599 85.7117 24.0276 85.7117 23.7622V10.5235C85.7117 9.89307 85.5792 9.46173 85.281 9.1963C84.9829 8.93086 84.3867 8.79814 83.5254 8.76496V7.86911L87.5005 7.67003ZM91.4093 8.89768C90.4486 8.89768 89.6205 9.36219 88.9249 10.2912C88.2623 11.2203 87.898 12.5806 87.898 14.3723C87.898 16.164 88.2292 17.4912 88.8917 18.3539C89.5542 19.2166 90.3824 19.6479 91.3761 19.6479C92.3368 19.6479 93.0655 19.2829 93.5624 18.553C94.2249 17.5908 94.5562 16.164 94.5562 14.306C94.5562 12.3484 94.2581 10.9548 93.6618 10.1253C93.0987 9.29583 92.3368 8.89768 91.4093 8.89768ZM82.631 22.9991V24.2599H98.3987V22.9991H82.631ZM110.125 10.0258V9.49491C110.059 9.09676 109.728 8.8645 109.165 8.8645H107.74V7.86911H114.796V8.8645H113.537C112.775 8.8645 112.411 9.22948 112.411 9.99261V18.5198C112.411 19.117 112.742 19.4157 113.405 19.4157H114.829V20.411H107.674V19.4157H108.999C109.761 19.4157 110.125 19.0507 110.125 18.2875V11.4525L103.798 18.0885V18.553C103.798 19.1502 104.129 19.4488 104.759 19.4488H106.216V20.4442H99.0612V19.4488H100.386C101.148 19.4488 101.513 19.0839 101.513 18.3207V9.79353C101.513 9.19629 101.181 8.89768 100.552 8.89768H99.1275V7.90229H106.216V8.89768H104.924C104.163 8.89768 103.798 9.26266 103.798 10.0258V16.7281L110.125 10.0258ZM98.3987 22.9991H115.458V24.2599H98.4319V22.9991H98.3987ZM125.959 16.7613L126.82 17.0267C126.125 19.6147 124.601 20.8756 122.216 20.8756C120.46 20.8756 119.036 20.3115 117.943 19.1502C116.85 17.9889 116.287 16.4627 116.287 14.5382C116.287 12.3152 116.883 10.5898 118.108 9.36219C119.334 8.13454 120.758 7.53731 122.415 7.53731C123.64 7.53731 124.667 7.86911 125.462 8.56588C126.257 9.26266 126.655 9.99261 126.655 10.8553C126.655 11.353 126.522 11.7843 126.191 12.0829C125.893 12.4147 125.529 12.5806 125.131 12.5806C124.734 12.5806 124.402 12.4479 124.104 12.1493C123.839 11.8839 123.673 11.5189 123.673 11.1539C123.673 10.7557 123.839 10.3908 124.137 10.0258C124.27 9.85989 124.336 9.72717 124.336 9.62763C124.336 9.36219 124.17 9.12994 123.806 8.8645C123.442 8.63224 122.978 8.49952 122.382 8.49952C121.288 8.49952 120.46 8.89768 119.897 9.69399C119.102 10.8553 118.705 12.3815 118.705 14.2728C118.705 16.0645 119.069 17.4249 119.765 18.3539C120.493 19.2829 121.388 19.7474 122.514 19.7474C124.071 19.7143 125.23 18.7189 125.959 16.7613ZM115.458 22.9991V24.2599H127.649V22.9991H115.458ZM128.841 0.602746H144.94L145.338 8.10136H144.41C143.814 3.68846 142.224 1.46542 139.64 1.46542C139.11 1.46542 138.779 1.56496 138.58 1.73086C138.381 1.89676 138.282 2.19537 138.282 2.62671V18.5198C138.282 18.8516 138.381 19.0839 138.58 19.2166C138.779 19.3825 139.077 19.4488 139.507 19.4488H141.495V20.4442H132.286V19.4488H134.572C134.87 19.4488 135.102 19.3825 135.267 19.2166C135.433 19.0507 135.499 18.8516 135.499 18.6193V2.52717C135.499 2.19537 135.4 1.92994 135.201 1.76404C135.002 1.59814 134.671 1.4986 134.207 1.4986C132.915 1.4986 131.822 2.12901 130.961 3.35666C130.232 4.35206 129.735 5.97786 129.404 8.13454H128.41L128.841 0.602746ZM127.649 22.9991H145.967V24.2599H127.649V22.9991Z" fill="black"/>
</svg>
